<svg fill="#0d141a" viewBox="0 0 119.0365 17.238500000000002" height="100%" width="100%" xmlns="http://www.w3.org/2000/svg"><path preserveAspectRatio="none" d="M12.40 13.13L12.40 13.13Q12.65 13.13 12.83 13.33L12.83 13.33L14.05 14.65Q13.04 15.90 11.56 16.57Q10.09 17.24 8.02 17.24L8.02 17.24Q6.16 17.24 4.69 16.61Q3.21 15.97 2.16 14.85Q1.12 13.72 0.56 12.16Q0 10.59 0 8.74L0 8.74Q0 6.87 0.62 5.31Q1.24 3.75 2.37 2.62Q3.50 1.50 5.07 0.87Q6.64 0.24 8.53 0.24L8.53 0.24Q10.38 0.24 11.77 0.83Q13.16 1.43 14.15 2.40L14.15 2.40L13.11 3.84Q13.02 3.98 12.87 4.08Q12.73 4.19 12.48 4.19L12.48 4.19Q12.21 4.19 11.94 3.98Q11.66 3.77 11.24 3.53Q10.81 3.29 10.16 3.08Q9.51 2.88 8.51 2.88L8.51 2.88Q7.34 2.88 6.35 3.28Q5.37 3.69 4.66 4.45Q3.96 5.21 3.56 6.30Q3.16 7.38 3.16 8.74L3.16 8.74Q3.16 10.14 3.56 11.24Q3.96 12.33 4.63 13.08Q5.31 13.82 6.23 14.22Q7.15 14.62 8.21 14.62L8.21 14.62Q8.84 14.62 9.36 14.55Q9.87 14.48 10.30 14.33Q10.73 14.18 11.11 13.94Q11.50 13.71 11.88 13.36L11.88 13.36Q11.99 13.26 12.12 13.20Q12.25 13.13 12.40 13.13ZM20.91 10.56L19.58 10.56L19.58 17.05L16.49 17.05L16.49 0.43L21.56 0.43Q23.26 0.43 24.48 0.78Q25.69 1.13 26.47 1.76Q27.24 2.39 27.61 3.27Q27.97 4.15 27.97 5.21L27.97 5.21Q27.97 6.05 27.72 6.80Q27.47 7.54 27.01 8.15Q26.54 8.76 25.86 9.22Q25.17 9.68 24.30 9.96L24.30 9.96Q24.89 10.29 25.31 10.91L25.31 10.91L29.47 17.05L26.69 17.05Q26.29 17.05 26.01 16.89Q25.73 16.73 25.53 16.43L25.53 16.43L22.03 11.11Q21.84 10.81 21.60 10.68Q21.37 10.56 20.91 10.56L20.91 10.56ZM19.58 2.82L19.58 8.34L21.52 8.34Q22.39 8.34 23.04 8.12Q23.69 7.90 24.11 7.52Q24.53 7.13 24.74 6.60Q24.94 6.07 24.94 5.44L24.94 5.44Q24.94 4.17 24.11 3.50Q23.28 2.82 21.56 2.82L21.56 2.82L19.58 2.82ZM47.32 13.13L47.32 13.13Q47.58 13.13 47.76 13.33L47.76 13.33L48.98 14.65Q47.97 15.90 46.49 16.57Q45.01 17.24 42.94 17.24L42.94 17.24Q41.09 17.24 39.61 16.61Q38.13 15.97 37.09 14.85Q36.04 13.72 35.48 12.16Q34.93 10.59 34.93 8.74L34.93 8.74Q34.93 6.87 35.55 5.31Q36.17 3.75 37.29 2.62Q38.42 1.50 39.99 0.87Q41.56 0.24 43.46 0.24L43.46 0.24Q45.31 0.24 46.70 0.83Q48.08 1.43 49.07 2.40L49.07 2.40L48.04 3.84Q47.94 3.98 47.80 4.08Q47.66 4.19 47.40 4.19L47.40 4.19Q47.14 4.19 46.86 3.98Q46.59 3.77 46.16 3.53Q45.74 3.29 45.09 3.08Q44.44 2.88 43.44 2.88L43.44 2.88Q42.26 2.88 41.28 3.28Q40.30 3.69 39.59 4.45Q38.88 5.21 38.48 6.30Q38.09 7.38 38.09 8.74L38.09 8.74Q38.09 10.14 38.48 11.24Q38.88 12.33 39.56 13.08Q40.24 13.82 41.16 14.22Q42.08 14.62 43.14 14.62L43.14 14.62Q43.77 14.62 44.28 14.55Q44.79 14.48 45.22 14.33Q45.66 14.18 46.04 13.94Q46.43 13.71 46.80 13.36L46.80 13.36Q46.92 13.26 47.05 13.20Q47.17 13.13 47.32 13.13ZM56.19 5.07L56.19 5.07Q57.51 5.07 58.59 5.50Q59.66 5.92 60.42 6.70Q61.18 7.49 61.59 8.61Q62.01 9.74 62.01 11.13L62.01 11.13Q62.01 12.54 61.59 13.66Q61.18 14.79 60.42 15.58Q59.66 16.38 58.59 16.80Q57.51 17.23 56.19 17.23L56.19 17.23Q54.87 17.23 53.79 16.80Q52.70 16.38 51.94 15.58Q51.17 14.79 50.76 13.66Q50.34 12.54 50.34 11.13L50.34 11.13Q50.34 9.74 50.76 8.61Q51.17 7.49 51.94 6.70Q52.70 5.92 53.79 5.50Q54.87 5.07 56.19 5.07ZM56.19 15.04L56.19 15.04Q57.66 15.04 58.37 14.05Q59.08 13.06 59.08 11.16L59.08 11.16Q59.08 9.25 58.37 8.25Q57.66 7.25 56.19 7.25L56.19 7.25Q54.69 7.25 53.98 8.25Q53.27 9.26 53.27 11.16L53.27 11.16Q53.27 13.05 53.98 14.05Q54.69 15.04 56.19 15.04ZM64.41 5.26L67.25 5.26L67.25 17.05L64.41 17.05L64.41 5.26ZM67.68 1.82L67.68 1.82Q67.68 2.19 67.53 2.51Q67.38 2.83 67.13 3.07Q66.88 3.31 66.55 3.46Q66.22 3.60 65.84 3.60L65.84 3.60Q65.47 3.60 65.14 3.46Q64.81 3.31 64.57 3.07Q64.33 2.83 64.19 2.51Q64.04 2.19 64.04 1.82L64.04 1.82Q64.04 1.44 64.19 1.10Q64.33 0.77 64.57 0.53Q64.81 0.29 65.14 0.14Q65.47 0 65.84 0L65.84 0Q66.22 0 66.55 0.14Q66.88 0.29 67.13 0.53Q67.38 0.77 67.53 1.10Q67.68 1.44 67.68 1.82ZM73.81 17.05L70.97 17.05L70.97 7.39L69.94 7.23Q69.61 7.18 69.41 7.00Q69.21 6.83 69.21 6.52L69.21 6.52L69.21 5.36L70.97 5.36L70.97 4.49Q70.97 3.47 71.27 2.67Q71.58 1.86 72.15 1.30Q72.71 0.74 73.53 0.44Q74.35 0.14 75.37 0.14L75.37 0.14Q76.19 0.14 76.89 0.36L76.89 0.36L76.83 1.78Q76.81 2.12 76.52 2.20Q76.23 2.28 75.85 2.28L75.85 2.28Q75.35 2.28 74.95 2.39Q74.55 2.50 74.28 2.77Q74.00 3.04 73.86 3.48Q73.71 3.92 73.71 4.58L73.71 4.58L73.71 5.36L76.79 5.36L76.79 7.38L73.81 7.38L73.81 17.05ZM81.87 17.05L79.03 17.05L79.03 7.39L78.00 7.23Q77.67 7.18 77.47 7.00Q77.27 6.83 77.27 6.52L77.27 6.52L77.27 5.36L79.03 5.36L79.03 4.49Q79.03 3.47 79.33 2.67Q79.64 1.86 80.21 1.30Q80.78 0.74 81.59 0.44Q82.41 0.14 83.43 0.14L83.43 0.14Q84.25 0.14 84.95 0.36L84.95 0.36L84.89 1.78Q84.87 2.12 84.58 2.20Q84.29 2.28 83.92 2.28L83.92 2.28Q83.41 2.28 83.01 2.39Q82.62 2.50 82.34 2.77Q82.06 3.04 81.92 3.48Q81.78 3.92 81.78 4.58L81.78 4.58L81.78 5.36L84.85 5.36L84.85 7.38L81.87 7.38L81.87 17.05ZM86.34 5.26L89.18 5.26L89.18 12.75Q89.18 13.83 89.68 14.43Q90.18 15.02 91.18 15.02L91.18 15.02Q91.92 15.02 92.56 14.69Q93.21 14.36 93.78 13.79L93.78 13.79L93.78 5.26L96.62 5.26L96.62 17.05L94.89 17.05Q94.33 17.05 94.16 16.54L94.16 16.54L93.97 15.59Q93.60 15.96 93.21 16.27Q92.82 16.57 92.37 16.78Q91.93 17.00 91.42 17.12Q90.91 17.24 90.32 17.24L90.32 17.24Q89.35 17.24 88.61 16.91Q87.87 16.58 87.37 15.99Q86.86 15.39 86.60 14.56Q86.34 13.74 86.34 12.75L86.34 12.75L86.34 5.26ZM102.50 17.05L99.66 17.05L99.66 5.26L101.33 5.26Q101.76 5.26 101.94 5.42Q102.11 5.58 102.17 5.97L102.17 5.97L102.34 7.39Q102.97 6.30 103.82 5.67Q104.67 5.04 105.73 5.04L105.73 5.04Q106.60 5.04 107.18 5.44L107.18 5.44L106.81 7.57Q106.78 7.77 106.66 7.86Q106.55 7.95 106.35 7.95L106.35 7.95Q106.18 7.95 105.88 7.87Q105.58 7.79 105.09 7.79L105.09 7.79Q104.20 7.79 103.57 8.27Q102.94 8.76 102.50 9.71L102.50 9.71L102.50 17.05ZM113.93 5.07L113.93 5.07Q115.05 5.07 115.98 5.43Q116.92 5.78 117.60 6.47Q118.28 7.15 118.66 8.15Q119.04 9.14 119.04 10.42L119.04 10.42Q119.04 10.74 119.01 10.95Q118.98 11.17 118.90 11.29Q118.83 11.41 118.70 11.46Q118.58 11.51 118.38 11.51L118.38 11.51L111.09 11.51Q111.22 13.33 112.07 14.18Q112.92 15.03 114.32 15.03L114.32 15.03Q115.01 15.03 115.51 14.87Q116.01 14.71 116.39 14.51Q116.76 14.32 117.04 14.16Q117.32 14.00 117.59 14.00L117.59 14.00Q117.76 14.00 117.89 14.06Q118.01 14.13 118.10 14.26L118.10 14.26L118.93 15.30Q118.46 15.85 117.87 16.22Q117.29 16.59 116.65 16.82Q116.01 17.04 115.35 17.14Q114.69 17.23 114.07 17.23L114.07 17.23Q112.84 17.23 111.78 16.82Q110.72 16.41 109.94 15.61Q109.16 14.81 108.71 13.63Q108.26 12.45 108.26 10.90L108.26 10.90Q108.26 9.69 108.65 8.63Q109.04 7.57 109.77 6.78Q110.50 5.99 111.56 5.53Q112.61 5.07 113.93 5.07ZM113.99 7.11L113.99 7.11Q112.75 7.11 112.04 7.81Q111.34 8.51 111.15 9.80L111.15 9.80L116.48 9.80Q116.48 9.25 116.33 8.76Q116.18 8.27 115.87 7.90Q115.56 7.53 115.09 7.32Q114.62 7.11 113.99 7.11Z"></path></svg>