<svg width="96" height="96" viewBox="0 0 96 96" fill="none" xmlns="http://www.w3.org/2000/svg">
<path d="M48 96C74.5097 96 96 74.5097 96 48C96 21.4903 74.5097 0 48 0C21.4903 0 0 21.4903 0 48C0 74.5097 21.4903 96 48 96Z" fill="#34D789"/>
<path d="M75.1971 65.3788C77.5889 62.8471 79 59.7605 79 56.4206C79 49.9065 73.646 44.3272 66.0603 42C66.1504 42.6426 66.1904 43.295 66.1904 43.9572C66.1904 54.2687 55.4123 62.6524 42.1724 62.6524C41.0916 62.6524 40.0408 62.5745 39 62.4674C42.1524 68.0662 49.5579 72 58.1844 72C62.2875 72 66.1003 71.1042 69.3227 69.5657C71.5044 70.8023 74.5366 72 78.1994 72C78.5196 72 78.8099 71.815 78.9299 71.5326C79.06 71.2502 79 70.9192 78.7798 70.6855C78.7498 70.6563 76.5382 68.3291 75.1971 65.3788Z" fill="white"/>
<path d="M43.5 25C57.0339 25 68 33.5025 68 44C68 54.4975 57.0339 63 43.5 63C38.6707 63 34.1829 61.8956 30.3901 60.0312C27.8224 61.5394 24.2534 63 19.9423 63C19.5654 63 19.2356 62.7863 19.0825 62.43C18.9293 62.0738 19 61.67 19.2591 61.3969C19.2945 61.3612 21.8976 58.5112 23.476 54.925C20.6608 51.8256 19 48.0731 19 44C19 33.5025 29.9661 25 43.5 25Z" fill="#34D789" stroke="white" stroke-width="3"/>
<circle cx="34.8333" cy="44.0238" r="2.5" fill="white"/>
<circle cx="42.6905" cy="44.0238" r="2.5" fill="white"/>
<circle cx="50.5476" cy="44.0238" r="2.5" fill="white"/>
</svg>
