<svg width="150" height="110" viewBox="0 0 150 110" fill="none" xmlns="http://www.w3.org/2000/svg">
<path d="M0 79.9C0 63.3 0 46.6 0 30C50 30 100 30 150 30C150 46.6 150 63.3 150 79.9C100 79.9 50 79.9 0 79.9ZM98.2 38.9C98.2 46.3 98.2 53.8 98.2 61.2C100 61.2 101.8 61.2 103.6 61.2C103.6 56.2 103.6 51.2 103.6 46.1C104.4 47.7 105.2 49.3 106 50.9C107.7 54.3 109.4 57.6 111.1 61C111.2 61.2 111.3 61.2 111.5 61.2C113.8 61.2 116 61.2 118.3 61.2C118.4 61.2 118.5 61.2 118.6 61.2C118.6 53.8 118.6 46.3 118.6 38.9C116.8 38.9 115 38.9 113.2 38.9C113.2 43.9 113.2 48.9 113.2 54C113.1 53.9 113.1 53.8 113.1 53.8C112.2 52 111.4 50.3 110.5 48.5C109 45.4 107.4 42.2 105.9 39.1C105.8 38.9 105.7 38.9 105.5 38.9C103.1 38.9 100.8 38.9 98.4 38.9C98.4 38.9 98.3 38.9 98.2 38.9ZM25.2 50.1C25.2 51.8 25.4 53.5 25.9 54.9C26.9 58 28.9 60.1 32 61.1C34.7 62 37.4 62 40.1 61.2C42.9 60.4 44.9 58.8 46.1 56.2C46.8 54.7 47.2 53.1 47.3 51.4C47.4 49.4 47.3 47.4 46.7 45.5C45.7 42.3 43.6 40.1 40.4 39C37.9 38.2 35.4 38.2 32.8 38.8C29.7 39.6 27.5 41.4 26.2 44.3C25.5 46.1 25.2 48.1 25.2 50.1ZM80.7 38.9C80.7 46.3 80.7 53.8 80.7 61.2C86 61.2 91.3 61.2 96.6 61.2C96.6 59.8 96.6 58.3 96.6 56.9C93.3 56.9 89.9 56.9 86.6 56.9C86.6 55.2 86.6 53.6 86.6 52C89.6 52 92.7 52 95.7 52C95.7 50.6 95.7 49.2 95.7 47.7C92.6 47.7 89.6 47.7 86.6 47.7C86.6 46.2 86.6 44.7 86.6 43.2C89.8 43.2 93 43.2 96.3 43.2C96.3 41.8 96.3 40.3 96.3 38.9C91.1 38.9 85.9 38.9 80.7 38.9ZM120.1 60.6C120.6 60.7 121 60.8 121.5 61C123.6 61.5 125.7 61.9 127.9 61.8C129.3 61.7 130.7 61.5 132 61C133.8 60.3 135.2 59.2 136 57.5C136.6 56.3 136.7 55 136.6 53.7C136.5 52.2 135.9 50.9 134.9 49.9C134.1 49.1 133.2 48.7 132.2 48.3C130.9 47.9 129.5 47.5 128.2 47C127.6 46.8 127.1 46.5 126.6 46.1C125.8 45.3 126 44.1 127 43.6C127.3 43.5 127.6 43.3 127.9 43.3C129.5 42.9 131.2 43 132.8 43.4C133.5 43.6 134.2 43.8 135 44C135 43.9 135 43.8 135 43.8C135.1 42.4 135.3 41 135.4 39.7C135.4 39.5 135.4 39.5 135.2 39.5C134.2 39.3 133.2 39.1 132.3 38.9C130.8 38.7 129.3 38.7 127.8 38.8C126.5 38.9 125.2 39.1 124 39.7C122.3 40.4 121.1 41.6 120.5 43.3C120.1 44.3 120 45.4 120.1 46.5C120.2 47.6 120.5 48.7 121.3 49.5C122 50.3 122.8 50.9 123.8 51.3C125 51.8 126.3 52.2 127.5 52.7C128.2 53 128.9 53.2 129.5 53.6C129.9 53.8 130.2 54.2 130.4 54.6C130.7 55.5 130.2 56.4 129.3 56.8C128.6 57.1 127.9 57.2 127.1 57.3C125.3 57.4 123.6 57 122 56.4C121.6 56.2 121.2 56.1 120.7 55.9C120.5 57.3 120.3 58.9 120.1 60.6ZM20.4 61.2C20.4 55.3 20.4 49.3 20.4 43.4C22.2 43.4 24.1 43.4 25.9 43.4C25.9 43.3 25.9 43.2 25.9 43.1C25.9 41.8 25.9 40.5 25.9 39.2C25.9 39 25.8 38.9 25.6 38.9C20.1 38.9 14.6 38.9 9.2 38.9C9.1 38.9 9 38.9 8.9 38.9C8.9 40.4 8.9 41.9 8.9 43.4C10.7 43.4 12.5 43.4 14.4 43.4C14.4 49.3 14.4 55.3 14.4 61.2C16.5 61.2 18.4 61.2 20.4 61.2ZM70.7 56.8C70.7 50.8 70.7 44.9 70.7 38.9C68.7 38.9 66.7 38.9 64.7 38.9C64.7 46.3 64.7 53.8 64.7 61.2C69.7 61.2 74.8 61.2 79.8 61.2C79.8 59.7 79.8 58.3 79.8 56.8C76.7 56.8 73.7 56.8 70.7 56.8ZM48.8 38.9C48.8 46.3 48.8 53.8 48.8 61.2C53.8 61.2 58.8 61.2 63.9 61.2C63.9 59.7 63.9 58.3 63.9 56.8C60.9 56.8 57.8 56.8 54.8 56.8C54.8 50.8 54.8 44.9 54.8 38.9C52.7 38.9 50.7 38.9 48.8 38.9ZM133.5 68.2C132.7 68.9 132.6 69.8 133.2 70.5C133.9 71.3 135 71.3 135.8 70.7C136.1 70.4 136.3 70.1 136.4 69.6C136.5 69 136.2 68.5 135.7 68.2C136.2 67.6 136.2 67 135.7 66.4C135.1 65.8 134.3 65.8 133.7 66.3C133.1 66.9 133 67.6 133.5 68.2ZM68.7 67.5C68.7 69.2 68.7 70.8 68.7 72.4C69 72.4 69.3 72.4 69.6 72.4C69.6 71.8 69.6 71.3 69.6 70.7C70.4 71.4 71.5 71.1 72 70.6C72.6 69.9 72.7 68.8 72.1 68.1C71.8 67.8 71.5 67.5 71.1 67.4C70.6 67.3 70.1 67.4 69.6 67.8C69.7 67.4 69.5 67.4 69.3 67.4C69.1 67.5 68.9 67.5 68.7 67.5ZM101.5 71.1C101.8 71.1 102.1 71.1 102.4 71.1C102.4 69.4 102.4 67.8 102.4 66.2C102.1 66.2 101.8 66.2 101.5 66.2C101.5 66.8 101.5 67.3 101.5 67.9C100.8 67.2 99.6 67.4 99.1 68C98.5 68.7 98.4 69.9 99 70.6C99.3 71 99.7 71.2 100.2 71.2C100.7 71.2 101.1 71.1 101.5 70.8C101.5 70.9 101.5 71 101.5 71.1ZM61.6 71.1C61.6 69.4 61.6 67.8 61.6 66.2C61.3 66.2 61 66.2 60.8 66.2C60.8 66.5 60.8 66.8 60.8 67.1C60.8 67.4 60.8 67.7 60.8 68C60.1 67.3 59 67.5 58.4 68C57.7 68.7 57.6 69.8 58.2 70.6C58.5 71 58.9 71.2 59.3 71.3C59.8 71.4 60.3 71.3 60.7 70.9C60.7 71 60.7 71.1 60.7 71.2C61.1 71.1 61.3 71.1 61.6 71.1ZM107.4 67.5C107.4 69.2 107.4 70.8 107.4 72.4C107.7 72.4 108 72.4 108.3 72.4C108.3 71.8 108.3 71.3 108.3 70.7C108.9 71.3 109.9 71.3 110.6 70.8C111.3 70.2 111.5 69 111 68.2C110.7 67.8 110.3 67.5 109.8 67.4C109.3 67.3 108.8 67.4 108.4 67.8C108.4 67.6 108.4 67.5 108.4 67.4C107.9 67.5 107.7 67.5 107.4 67.5ZM30.5 67C29.8 66.1 28.6 65.8 27.5 66.3C26.4 66.8 25.8 67.7 25.9 69.1C26 70.1 26.8 71 27.9 71.2C28.9 71.4 30.1 71 30.5 70.3C30.3 70.1 30.1 70 29.9 69.8C29 70.6 28 70.6 27.3 69.9C26.7 69.3 26.6 68.2 27.2 67.5C27.5 67.2 27.8 67 28.2 66.9C28.9 66.8 29.4 67 29.9 67.5C30.1 67.3 30.3 67.1 30.5 67ZM41.5 71.1C41.5 70.9 41.5 70.8 41.5 70.7C41.5 69.7 41.5 68.8 41.5 67.8C41.5 67.7 41.5 67.6 41.3 67.6C41.1 67.6 40.8 67.6 40.6 67.6C40.6 67.7 40.6 67.8 40.6 68C40 67.3 38.8 67.5 38.3 68.1C37.6 68.8 37.6 70 38.2 70.8C38.9 71.5 39.8 71.6 40.7 71C40.7 71.1 40.7 71.2 40.7 71.3C40.9 71.1 41.2 71.1 41.5 71.1ZM104 69.5C104.5 69.5 104.9 69.5 105.4 69.5C105.9 69.5 106.3 69.5 106.7 69.5C106.9 68.4 106.2 67.5 105.2 67.4C104.4 67.3 103.6 67.7 103.3 68.4C102.9 69.2 103.1 70.2 103.7 70.7C104.2 71.1 104.8 71.2 105.4 71.1C105.9 71 106.2 70.8 106.6 70.5C106.4 70.3 106.2 70.2 106.1 70C105.6 70.4 105.1 70.5 104.6 70.3C104.1 70.2 104 69.9 104 69.5ZM73.9 69.5C74 69.5 74.1 69.5 74.2 69.5C74.9 69.5 75.7 69.5 76.4 69.5C76.5 69.5 76.6 69.5 76.7 69.3C76.8 68.6 76.4 67.9 75.9 67.6C75.2 67.2 74.2 67.3 73.6 67.8C73 68.3 72.8 69.3 73.2 70.1C73.5 70.8 74.4 71.3 75.3 71.1C75.8 71 76.2 70.8 76.5 70.4C76.3 70.2 76.1 70.1 76 69.9C75.5 70.3 75 70.4 74.5 70.2C74.1 70.2 74 69.9 73.9 69.5ZM63.2 69.5C64.1 69.5 65 69.5 66 69.5C66 69.1 66 68.8 65.9 68.5C65.5 67.2 63.7 66.9 62.8 68C62.2 68.7 62.2 70.1 63 70.7C63.8 71.4 65.2 71.3 65.8 70.5C65.6 70.3 65.5 70.1 65.3 69.9C64.8 70.3 64.3 70.4 63.8 70.2C63.4 70.2 63.2 69.9 63.2 69.5ZM48.2 69.5C48.4 68.5 47.8 67.7 47 67.4C46 67.1 45.1 67.6 44.7 68.5C44.3 69.5 44.7 70.5 45.5 71C46.3 71.4 47.5 71.2 47.9 70.6C47.7 70.4 47.6 70.2 47.4 70C46.9 70.4 46.4 70.5 45.8 70.3C45.5 70.2 45.4 69.9 45.4 69.6C46.4 69.5 47.3 69.5 48.2 69.5ZM96 69.5C96.1 68.9 96 68.5 95.7 68C95.2 67.3 94.5 67.2 93.7 67.4C92.9 67.6 92.5 68.1 92.4 68.9C92.2 69.8 92.6 70.6 93.4 70.9C94.2 71.3 95.3 71.1 95.8 70.5C95.6 70.3 95.5 70.1 95.3 70C94.7 70.4 94.2 70.5 93.7 70.2C93.4 70 93.3 69.8 93.3 69.5C94.1 69.5 95 69.5 96 69.5ZM34.4 69.5C35.3 69.5 36.2 69.5 37.1 69.5C37.2 68.5 36.7 67.6 35.9 67.4C34.9 67.2 34 67.6 33.6 68.5C33.2 69.4 33.6 70.5 34.4 70.9C35.2 71.4 36.5 71.1 36.9 70.4C36.8 70.3 36.7 70.2 36.6 70.2C36.5 70.1 36.4 70.1 36.4 70C35.8 70.4 35.4 70.5 34.9 70.3C34.6 70.2 34.5 69.9 34.4 69.5ZM129.7 69.3C130.2 68.2 130.7 67.2 131.2 66.2C130.9 66.2 130.7 66.2 130.5 66.2C130.3 66.2 130.2 66.3 130.1 66.4C129.6 67.4 129.2 68.3 128.7 69.3C128.5 69.6 128.6 69.9 128.6 70.2C129.4 70.2 130.3 70.2 131.1 70.2C131.1 70.5 131.1 70.8 131.1 71.2C131.4 71.2 131.7 71.2 132 71.2C132 70.3 132 69.4 132 68.4C131.8 68.4 131.6 68.4 131.4 68.4C131.2 68.4 131.1 68.4 131.1 68.6C131.1 68.8 131.1 69.1 131.1 69.3C130.7 69.3 130.2 69.3 129.7 69.3ZM79.2 67.5C79.2 68.7 79.2 69.9 79.2 71.1C79.5 71.1 79.8 71.1 80.1 71.1C80.1 70.4 80.1 69.8 80.1 69.2C80.1 69 80.1 68.9 80.2 68.7C80.3 68.4 80.7 68.2 81.1 68.3C81.4 68.3 81.6 68.6 81.7 68.9C81.7 69.1 81.7 69.4 81.7 69.6C81.7 70.1 81.7 70.6 81.7 71.1C82 71.1 82.3 71.1 82.6 71.1C82.6 70.3 82.6 69.4 82.6 68.6C82.6 67.9 82 67.4 81.3 67.4C80.9 67.4 80.5 67.5 80.2 67.9C80.2 67.7 80.2 67.6 80.2 67.5C79.7 67.5 79.5 67.5 79.2 67.5ZM51.3 67.5C51.3 67.6 51.3 67.7 51.3 67.8C51.3 68.4 51.3 69 51.3 69.6C51.3 70.1 51 70.4 50.5 70.4C50 70.4 49.7 70.1 49.7 69.6C49.7 69 49.7 68.4 49.7 67.8C49.7 67.7 49.7 67.6 49.7 67.5C49.5 67.5 49.2 67.5 49 67.5C48.8 67.5 48.8 67.6 48.8 67.7C48.8 68.4 48.8 69.1 48.8 69.7C48.8 70.4 49.3 71 50 71.1C50.2 71.1 50.5 71.2 50.7 71.1C51.6 71.1 52.1 70.5 52.1 69.7C52.1 69 52.1 68.3 52.1 67.6V67.5C51.9 67.5 51.6 67.5 51.3 67.5ZM85.7 67.5C85.7 68.3 85.7 69 85.7 69.8C85.7 70.4 86 70.9 86.7 71.1C87 71.2 87.3 71.2 87.6 71.2C88.4 71.1 89 70.6 89 69.8C89 69.1 89 68.4 89 67.7V67.6C88.7 67.6 88.4 67.6 88.2 67.6C88.2 67.9 88.2 68.2 88.2 68.5C88.2 69 88.2 69.4 88.2 69.9C88.2 70.2 88 70.4 87.7 70.4C87.1 70.6 86.7 70.3 86.7 69.6C86.7 69 86.7 68.4 86.7 67.8C86.7 67.7 86.7 67.6 86.5 67.6C86.2 67.5 86 67.5 85.7 67.5ZM111.8 67.5C111.8 68.2 111.8 68.9 111.8 69.6C111.8 69.7 111.8 69.8 111.8 69.9C111.9 70.5 112.2 70.9 112.8 71.1C113.1 71.2 113.4 71.2 113.8 71.2C114.6 71.1 115.1 70.6 115.2 69.9C115.2 69.1 115.2 68.4 115.2 67.6V67.5C114.9 67.5 114.7 67.5 114.4 67.5C114.4 67.6 114.4 67.7 114.4 67.8C114.4 68.4 114.4 69 114.4 69.6C114.4 70 114.2 70.3 113.9 70.3C113.3 70.5 112.9 70.2 112.9 69.6C112.9 69 112.9 68.4 112.9 67.7C112.9 67.6 112.9 67.5 112.7 67.5C112.3 67.5 112.1 67.5 111.8 67.5ZM127.6 67C126.9 68.4 126.2 69.7 125.5 71.1C125.8 71.1 126 71.1 126.2 71.1C126.4 71.1 126.5 71 126.6 70.8C127.2 69.5 127.9 68.2 128.5 66.9C128.6 66.7 128.6 66.3 128.6 66C127.4 66 126.2 66 125.1 66C125.1 66.3 125.1 66.5 125.1 66.8C126 67 126.8 67 127.6 67ZM119.6 68.5C119.8 68.3 119.9 68.2 120.1 68C119.9 67.5 119.1 67.4 118.7 67.4C118.1 67.5 117.7 67.9 117.7 68.4C117.6 68.9 117.9 69.3 118.5 69.5C118.8 69.6 119 69.7 119.3 69.8C119.4 69.9 119.6 70 119.6 70.1C119.6 70.3 119.4 70.4 119.2 70.4C118.7 70.5 118.3 70.4 118 70C117.8 70.2 117.6 70.3 117.4 70.5C117.6 70.7 117.7 70.8 117.8 70.9C118.4 71.3 119.1 71.3 119.8 71C120.2 70.8 120.4 70.5 120.4 70.1C120.4 69.7 120.2 69.4 119.9 69.2C119.7 69.1 119.5 69 119.3 69C119.1 68.9 118.9 68.9 118.8 68.8C118.7 68.7 118.6 68.6 118.6 68.5C118.6 68.4 118.8 68.3 118.9 68.3C119.1 68.1 119.4 68.2 119.6 68.5ZM42.7 68.3C42.7 69.2 42.7 70.1 42.7 71.1C43 71.1 43.3 71.1 43.6 71.1C43.6 70.2 43.6 69.3 43.6 68.3C43.9 68.3 44.1 68.3 44.3 68.3C44.3 68 44.3 67.8 44.3 67.5C44 67.5 43.8 67.5 43.6 67.5C43.6 67 43.6 66.6 43.6 66.2C43.3 66.2 43 66.2 42.7 66.2C42.7 66.7 42.7 67.1 42.7 67.5C42.5 67.5 42.4 67.5 42.3 67.5C42.3 67.8 42.3 68 42.3 68.3C42.4 68.3 42.5 68.3 42.7 68.3ZM124.3 71.1C124.3 71 124.3 70.9 124.3 70.8C124.3 69.7 124.3 68.6 124.3 67.4C124.3 67 124.3 66.7 124.3 66.3C124.3 66.2 124.2 66.1 124.2 66.1C123.7 66.1 123.2 66.1 122.7 66.1C122.7 66.4 122.7 66.7 122.7 67C122.9 67 123.1 67 123.4 67C123.4 68.4 123.4 69.7 123.4 71.1C123.7 71.1 124 71.1 124.3 71.1ZM84.4 71.1C84.4 71 84.4 71 84.4 70.9C84.4 70.1 84.4 69.3 84.4 68.5C84.4 68.3 84.4 68.2 84.7 68.2C84.9 68.2 85 68.2 85.2 68.2C85.2 67.9 85.2 67.7 85.2 67.4C84.9 67.4 84.7 67.4 84.4 67.4C84.4 66.9 84.4 66.5 84.4 66C84.1 66 83.8 66 83.5 66C83.5 66.5 83.5 66.9 83.5 67.3C83.3 67.3 83.2 67.3 83.1 67.3C83.1 67.6 83.1 67.8 83.1 68.1C83.3 68.1 83.4 68.1 83.6 68.1C83.6 69 83.6 69.9 83.6 70.9C83.8 71.1 84.1 71.1 84.4 71.1ZM55.2 68.3C55.2 68.2 55.2 68.1 55.2 68C55.2 67.4 55.1 67.3 54.5 67.5C54.4 67.5 54.4 67.5 54.4 67.6C54.2 67.7 54.1 67.8 53.9 67.9C53.9 67.8 53.9 67.7 53.9 67.5C53.7 67.5 53.5 67.5 53.3 67.5C53.1 67.5 53 67.6 53 67.8C53 68.8 53 69.9 53 70.9C53 71 53 71.1 53 71.1C53.3 71.1 53.6 71.1 53.9 71.1C53.9 71 53.9 70.9 53.9 70.9C53.9 70.4 53.9 69.8 53.9 69.3C53.9 68.7 54.2 68.4 54.8 68.4C54.9 68.3 55 68.3 55.2 68.3ZM89.9 67.5C89.9 68.7 89.9 69.9 89.9 71.1C90.2 71.1 90.5 71.1 90.8 71.1C90.8 70.5 90.8 69.9 90.8 69.3C90.8 68.7 91.2 68.3 91.8 68.3C91.9 68.3 92 68.3 92.1 68.3C92.1 68 92.1 67.8 92.1 67.5C91.6 67.4 91.2 67.5 90.8 67.9C90.8 67.7 90.8 67.6 90.8 67.5C90.5 67.5 90.2 67.5 89.9 67.5ZM31.1 67.5C31.1 68.7 31.1 69.9 31.1 71.1C31.4 71.1 31.7 71.1 32 71.1C32 71 32 70.9 32 70.8C32 70.3 32 69.7 32 69.2C32 68.6 32.4 68.3 32.9 68.3C33 68.3 33.2 68.3 33.3 68.3C33.3 68.1 33.3 67.8 33.3 67.6C33.3 67.5 33.2 67.5 33.2 67.4C32.8 67.4 32.5 67.4 32.2 67.7L32.1 67.8C32.1 67.7 32.1 67.6 32.1 67.4C31.6 67.5 31.4 67.5 31.1 67.5ZM116.8 71.1C116.8 69.9 116.8 68.7 116.8 67.5C116.5 67.5 116.2 67.5 115.9 67.5C115.9 68.7 115.9 69.9 115.9 71.1C116.3 71.1 116.6 71.1 116.8 71.1ZM78.2 71.1C78.2 69.9 78.2 68.7 78.2 67.5C77.9 67.5 77.6 67.5 77.4 67.5C77.4 68.7 77.4 69.9 77.4 71.1C77.7 71.1 77.9 71.1 78.2 71.1ZM36.4 66.1C36.1 66.1 35.8 66.1 35.5 66.1C35.4 66.1 35.4 66.2 35.3 66.2C35.2 66.5 35.1 66.8 35 67.2C35.2 67.2 35.3 67.2 35.4 67.2C35.5 67.2 35.6 67.2 35.7 67.1C36 66.8 36.2 66.5 36.4 66.1ZM116.9 66.6C116.9 66.3 116.7 66.1 116.4 66.1C116.1 66.1 115.9 66.4 115.9 66.6C115.9 66.9 116.2 67.1 116.4 67.1C116.7 67.1 116.9 66.9 116.9 66.6ZM78.3 66.6C78.3 66.3 78.1 66.1 77.8 66.1C77.5 66.1 77.3 66.3 77.3 66.6C77.3 66.9 77.5 67.1 77.8 67.1C78.1 67.1 78.3 66.9 78.3 66.6Z" fill="#12395C"/>
<path d="M98.2 38.9C98.3 38.9 98.4 38.9 98.5 38.9C100.9 38.9 103.2 38.9 105.6 38.9C105.8 38.9 105.9 39 106 39.1C107.5 42.2 109.1 45.4 110.6 48.5C111.5 50.3 112.3 52 113.2 53.8C113.2 53.8 113.2 53.9 113.3 54C113.3 48.9 113.3 44 113.3 38.9C115.1 38.9 116.9 38.9 118.7 38.9C118.7 46.3 118.7 53.7 118.7 61.2C118.6 61.2 118.5 61.2 118.4 61.2C116.1 61.2 113.9 61.2 111.6 61.2C111.4 61.2 111.3 61.1 111.2 61C109.5 57.6 107.8 54.3 106.1 50.9C105.3 49.3 104.5 47.8 103.7 46.1C103.7 51.2 103.7 56.1 103.7 61.2C101.9 61.2 100.1 61.2 98.3 61.2C98.2 53.8 98.2 46.4 98.2 38.9Z" fill="white"/>
<path d="M25.2 50.1C25.2 48.1 25.5 46.1 26.3 44.3C27.6 41.4 29.8 39.6 32.9 38.8C35.5 38.2 38 38.2 40.5 39C43.7 40 45.8 42.3 46.8 45.5C47.4 47.4 47.5 49.4 47.4 51.4C47.3 53.1 46.9 54.7 46.2 56.2C44.9 58.8 42.9 60.4 40.2 61.2C37.4 62 34.7 62 32 61.1C28.9 60.1 26.9 57.9 25.9 54.9C25.4 53.5 25.2 51.8 25.2 50.1ZM41.3 50.1C41.2 49.5 41.2 48.9 41.1 48.2C41 47.1 40.6 46 40 45C38.3 42.6 35.1 42.3 33.1 44.5C32.3 45.4 31.8 46.5 31.6 47.7C31.3 49 31.3 50.3 31.5 51.6C31.6 52.8 32 53.9 32.6 55C33.8 57 35.9 57.6 37.8 57C39.3 56.5 40.1 55.5 40.7 54.1C41.1 52.8 41.3 51.5 41.3 50.1Z" fill="white"/>
<path d="M80.7 38.9C85.9 38.9 91.1 38.9 96.3 38.9C96.3 40.3 96.3 41.7 96.3 43.2C93.1 43.2 89.9 43.2 86.6 43.2C86.6 44.7 86.6 46.2 86.6 47.7C89.6 47.7 92.7 47.7 95.7 47.7C95.7 49.1 95.7 50.5 95.7 52C92.7 52 89.6 52 86.6 52C86.6 53.7 86.6 55.3 86.6 56.9C89.9 56.9 93.2 56.9 96.6 56.9C96.6 58.4 96.6 59.8 96.6 61.2C91.3 61.2 86 61.2 80.7 61.2C80.7 53.8 80.7 46.4 80.7 38.9Z" fill="white"/>
<path d="M120.1 60.6C120.3 58.9 120.4 57.3 120.6 55.6C121 55.8 121.4 55.9 121.9 56.1C123.5 56.7 125.2 57.1 127 57C127.7 57 128.5 56.9 129.2 56.5C130.1 56.1 130.6 55.2 130.3 54.3C130.2 53.8 129.9 53.5 129.4 53.3C128.7 53 128.1 52.7 127.4 52.4C126.2 51.9 124.9 51.5 123.7 51C122.7 50.6 121.9 50 121.2 49.2C120.5 48.3 120.1 47.3 120 46.2C119.9 45.1 120 44 120.4 43C121 41.3 122.3 40.1 123.9 39.4C125.1 38.9 126.4 38.6 127.7 38.5C129.2 38.4 130.7 38.4 132.2 38.6C133.2 38.7 134.2 39 135.1 39.2C135.2 39.2 135.3 39.3 135.3 39.4C135.2 40.8 135 42.2 134.9 43.5C134.9 43.6 134.9 43.7 134.9 43.7C134.2 43.5 133.5 43.2 132.7 43.1C131.1 42.7 129.4 42.6 127.8 43C127.5 43.1 127.2 43.2 126.9 43.3C125.9 43.8 125.7 45 126.5 45.8C126.9 46.3 127.5 46.6 128.1 46.7C129.4 47.1 130.8 47.5 132.1 48C133.1 48.3 134 48.8 134.8 49.6C135.9 50.7 136.4 51.9 136.5 53.4C136.6 54.7 136.4 56 135.9 57.2C135.1 59 133.7 60.1 131.9 60.7C130.6 61.2 129.2 61.4 127.8 61.5C125.6 61.6 123.5 61.2 121.4 60.7C121.1 60.8 120.6 60.7 120.1 60.6Z" fill="white"/>
<path d="M20.4 61.2C18.4 61.2 16.4 61.2 14.4 61.2C14.4 55.3 14.4 49.4 14.4 43.4C12.6 43.4 10.7 43.4 8.90002 43.4C8.90002 41.9 8.90002 40.4 8.90002 38.9C9.00002 38.9 9.10002 38.9 9.20002 38.9C14.7 38.9 20.2 38.9 25.6 38.9C25.9 38.9 26 39 26 39.2C26 40.5 26 41.8 26 43.1C26 43.2 26 43.3 26 43.4C24.2 43.4 22.4 43.4 20.5 43.4C20.4 49.4 20.4 55.3 20.4 61.2Z" fill="white"/>
<path d="M70.7 56.8C73.8 56.8 76.8 56.8 79.8 56.8C79.8 58.3 79.8 59.7 79.8 61.2C74.8 61.2 69.8 61.2 64.7 61.2C64.7 53.8 64.7 46.4 64.7 38.9C66.7 38.9 68.7 38.9 70.7 38.9C70.7 44.9 70.7 50.8 70.7 56.8Z" fill="white"/>
<path d="M48.8 38.9C50.8 38.9 52.7 38.9 54.7 38.9C54.7 44.8 54.7 50.8 54.7 56.8C57.7 56.8 60.8 56.8 63.8 56.8C63.8 58.3 63.8 59.7 63.8 61.2C58.8 61.2 53.8 61.2 48.7 61.2C48.8 53.8 48.8 46.4 48.8 38.9Z" fill="white"/>
<path d="M133.5 68.2C133 67.6 133 66.9 133.6 66.4C134.2 65.9 135 65.9 135.6 66.5C136.1 67 136.1 67.7 135.6 68.3C136.1 68.6 136.4 69.1 136.3 69.7C136.3 70.1 136.1 70.5 135.7 70.8C134.9 71.5 133.8 71.4 133.1 70.6C132.6 69.8 132.7 69 133.5 68.2ZM135.5 69.5C135.5 69.1 135.1 68.7 134.6 68.7C134.1 68.7 133.7 69.1 133.7 69.5C133.7 70 134.1 70.3 134.6 70.3C135.1 70.3 135.5 70 135.5 69.5ZM134.6 68C134.9 68 135.2 67.7 135.2 67.4C135.2 67.1 134.9 66.8 134.6 66.9C134.3 66.9 134 67.1 134 67.5C134 67.7 134.3 68 134.6 68Z" fill="white"/>
<path d="M68.7 67.5C68.9 67.5 69.1 67.5 69.2 67.5C69.4 67.5 69.6 67.5 69.5 67.9C69.9 67.4 70.5 67.4 71 67.5C71.4 67.6 71.8 67.8 72 68.2C72.6 68.9 72.5 70.1 71.9 70.7C71.4 71.2 70.3 71.5 69.5 70.8C69.5 71.4 69.5 71.9 69.5 72.5C69.2 72.5 68.9 72.5 68.6 72.5C68.7 70.8 68.7 69.2 68.7 67.5ZM70.6 68.2C70 68.2 69.5 68.7 69.5 69.3C69.5 69.9 70 70.4 70.6 70.4C71.2 70.4 71.7 69.9 71.7 69.3C71.7 68.7 71.2 68.2 70.6 68.2Z" fill="white"/>
<path d="M101.5 71.1C101.5 71 101.5 70.9 101.5 70.8C101.1 71.2 100.7 71.3 100.2 71.2C99.7 71.2 99.3 70.9 99 70.6C98.4 69.9 98.4 68.7 99.1 68C99.7 67.4 100.8 67.2 101.5 67.9C101.5 67.3 101.5 66.8 101.5 66.2C101.8 66.2 102.1 66.2 102.4 66.2C102.4 67.8 102.4 69.5 102.4 71.1C102.1 71.1 101.8 71.1 101.5 71.1ZM100.5 68.2C99.9 68.2 99.5 68.6 99.4 69.3C99.4 69.9 99.8 70.4 100.4 70.4C101 70.4 101.5 69.9 101.5 69.3C101.6 68.7 101.1 68.2 100.5 68.2Z" fill="white"/>
<path d="M61.6 71.1C61.3 71.1 61.1 71.1 60.8 71.1C60.8 71 60.8 70.9 60.8 70.8C60.4 71.2 59.9 71.3 59.4 71.2C58.9 71.1 58.6 70.9 58.3 70.5C57.7 69.8 57.8 68.6 58.5 67.9C59.1 67.3 60.2 67.2 60.9 67.9C60.9 67.6 60.9 67.3 60.9 67C60.9 66.7 60.9 66.4 60.9 66.1C61.2 66.1 61.5 66.1 61.7 66.1C61.6 67.8 61.6 69.4 61.6 71.1ZM58.7 69.3C58.7 69.9 59.1 70.4 59.7 70.4C60.3 70.4 60.8 69.9 60.8 69.3C60.8 68.7 60.3 68.2 59.7 68.2C59.1 68.2 58.7 68.7 58.7 69.3Z" fill="white"/>
<path d="M107.4 67.5C107.7 67.5 108 67.5 108.2 67.5C108.2 67.6 108.2 67.7 108.2 67.9C108.6 67.5 109.1 67.4 109.6 67.5C110.1 67.6 110.5 67.8 110.8 68.3C111.3 69.1 111.2 70.3 110.4 70.9C109.7 71.5 108.8 71.4 108.1 70.8C108.1 71.4 108.1 71.9 108.1 72.5C107.8 72.5 107.5 72.5 107.2 72.5C107.4 70.8 107.4 69.2 107.4 67.5ZM110.3 69.3C110.3 68.7 109.9 68.2 109.3 68.2C108.7 68.2 108.2 68.7 108.2 69.3C108.2 69.9 108.7 70.4 109.3 70.4C109.8 70.4 110.3 69.9 110.3 69.3Z" fill="white"/>
<path d="M30.5 67C30.3 67.2 30.1 67.3 29.9 67.5C29.4 67 28.9 66.8 28.2 66.9C27.8 67 27.5 67.2 27.2 67.5C26.6 68.2 26.7 69.2 27.3 69.9C28 70.6 29 70.5 29.9 69.8C30.1 70 30.3 70.1 30.5 70.3C30.1 71 28.9 71.4 27.9 71.2C26.8 71 26 70.1 25.9 69.1C25.8 67.8 26.4 66.8 27.5 66.3C28.6 65.8 29.8 66.1 30.5 67Z" fill="white"/>
<path d="M41.5 71.1C41.2 71.1 40.9 71.1 40.6 71.1C40.6 71 40.6 70.9 40.6 70.8C39.8 71.4 38.8 71.4 38.1 70.6C37.5 69.9 37.5 68.6 38.2 67.9C38.7 67.3 39.9 67.2 40.5 67.8C40.5 67.7 40.5 67.6 40.5 67.4C40.7 67.4 41 67.4 41.2 67.4C41.4 67.4 41.4 67.5 41.4 67.6C41.4 68.6 41.4 69.5 41.4 70.5C41.5 70.8 41.5 70.9 41.5 71.1ZM39.6 68.2C39 68.2 38.5 68.6 38.5 69.3C38.5 69.9 39 70.4 39.5 70.4C40.1 70.4 40.6 69.9 40.6 69.3C40.7 68.7 40.2 68.2 39.6 68.2Z" fill="white"/>
<path d="M104 69.5C104 69.9 104.2 70.1 104.5 70.3C105.1 70.6 105.6 70.4 106 70C106.2 70.2 106.3 70.3 106.5 70.5C106.2 70.9 105.8 71.1 105.3 71.1C104.7 71.2 104.1 71.1 103.6 70.7C103 70.2 102.8 69.2 103.2 68.4C103.5 67.7 104.3 67.2 105.1 67.4C106.1 67.5 106.8 68.5 106.6 69.5C106.2 69.5 105.7 69.5 105.3 69.5C104.9 69.5 104.4 69.5 104 69.5ZM104 68.9C104.6 68.9 105.2 68.9 105.8 68.9C105.8 68.5 105.5 68.2 105 68.2C104.5 68.1 104.1 68.4 104 68.9Z" fill="white"/>
<path d="M73.9 69.5C73.9 69.9 74.1 70.1 74.4 70.3C74.9 70.5 75.4 70.4 75.9 70C76.1 70.2 76.2 70.3 76.4 70.5C76.1 70.9 75.7 71.1 75.2 71.2C74.3 71.4 73.5 70.9 73.1 70.2C72.8 69.5 72.9 68.4 73.5 67.9C74.1 67.4 75.1 67.3 75.8 67.7C76.4 68 76.7 68.8 76.6 69.4C76.6 69.6 76.5 69.6 76.3 69.6C75.6 69.6 74.8 69.6 74.1 69.6C74.1 69.5 74.1 69.5 73.9 69.5ZM75.8 68.9C75.8 68.5 75.4 68.2 74.9 68.2C74.4 68.2 74 68.5 74 68.9C74.5 68.9 75 68.9 75.6 68.9C75.6 68.9 75.7 68.9 75.8 68.9Z" fill="white"/>
<path d="M63.2 69.5C63.2 69.9 63.4 70.1 63.7 70.3C64.1 70.5 64.7 70.4 65.2 70C65.4 70.2 65.5 70.4 65.7 70.6C65.1 71.3 63.7 71.4 62.9 70.8C62.2 70.2 62.1 68.8 62.7 68.1C63.6 67.1 65.4 67.3 65.8 68.6C65.9 68.9 65.9 69.2 65.9 69.6C65 69.5 64.1 69.5 63.2 69.5ZM65 68.9C65 68.5 64.6 68.2 64.1 68.2C63.6 68.2 63.2 68.5 63.2 68.9C63.8 68.9 64.4 68.9 65 68.9Z" fill="white"/>
<path d="M48.2 69.5C47.3 69.5 46.4 69.5 45.5 69.5C45.5 69.8 45.6 70.1 45.9 70.2C46.5 70.5 47 70.4 47.5 69.9C47.7 70.1 47.8 70.3 48 70.5C47.6 71.1 46.4 71.3 45.6 70.9C44.8 70.5 44.4 69.4 44.8 68.4C45.1 67.5 46.1 67.1 47.1 67.3C47.9 67.7 48.4 68.6 48.2 69.5ZM47.3 68.9C47.3 68.5 46.9 68.2 46.5 68.2C46 68.2 45.6 68.5 45.5 68.9C46.1 68.9 46.7 68.9 47.3 68.9Z" fill="white"/>
<path d="M96 69.5C95.1 69.5 94.2 69.5 93.3 69.5C93.3 69.8 93.4 70.1 93.7 70.2C94.2 70.5 94.7 70.4 95.3 70C95.5 70.2 95.6 70.4 95.8 70.5C95.3 71.1 94.2 71.3 93.4 70.9C92.6 70.6 92.3 69.7 92.4 68.9C92.5 68.1 93 67.6 93.7 67.4C94.5 67.2 95.1 67.4 95.7 68C96 68.5 96 69 96 69.5ZM93.2 68.9C93.8 68.9 94.4 68.9 95 68.9C95 68.5 94.7 68.3 94.3 68.2C93.8 68.1 93.4 68.4 93.2 68.9Z" fill="white"/>
<path d="M34.4 69.5C34.4 69.9 34.6 70.2 34.9 70.3C35.4 70.5 35.8 70.4 36.4 70C36.5 70.1 36.6 70.1 36.6 70.2C36.7 70.3 36.8 70.4 36.9 70.4C36.4 71.1 35.2 71.3 34.4 70.9C33.6 70.5 33.3 69.4 33.6 68.5C33.9 67.6 34.9 67.2 35.9 67.4C36.8 67.6 37.3 68.5 37.1 69.5C36.3 69.5 35.4 69.5 34.4 69.5ZM34.5 68.9C35.1 68.9 35.7 68.9 36.3 68.9C36.3 68.5 35.9 68.2 35.4 68.2C34.9 68.2 34.5 68.5 34.5 68.9Z" fill="white"/>
<path d="M129.7 69.3C130.2 69.3 130.7 69.3 131.2 69.3C131.2 69.1 131.2 68.8 131.2 68.6C131.2 68.4 131.3 68.3 131.5 68.4C131.7 68.4 131.9 68.4 132.1 68.4C132.1 69.3 132.1 70.3 132.1 71.2C131.8 71.2 131.5 71.2 131.2 71.2C131.2 70.9 131.2 70.6 131.2 70.2C130.3 70.2 129.5 70.2 128.7 70.2C128.7 69.9 128.7 69.6 128.8 69.3C129.3 68.4 129.7 67.4 130.2 66.4C130.3 66.2 130.4 66.2 130.6 66.2C130.8 66.2 131 66.2 131.3 66.2C130.7 67.2 130.2 68.2 129.7 69.3Z" fill="white"/>
<path d="M79.2 67.5C79.5 67.5 79.8 67.5 80 67.5C80 67.6 80 67.7 80 67.9C80.3 67.5 80.7 67.4 81.1 67.4C81.8 67.4 82.3 67.9 82.4 68.6C82.4 69.4 82.4 70.2 82.4 71.1C82.1 71.1 81.8 71.1 81.5 71.1C81.5 70.6 81.5 70.1 81.5 69.6C81.5 69.4 81.5 69.1 81.5 68.9C81.5 68.6 81.2 68.3 80.9 68.3C80.5 68.2 80.2 68.4 80 68.7C80 68.8 80 69 80 69.1C80 69.7 80 70.4 80 71C79.7 71 79.4 71 79.1 71C79.2 69.9 79.2 68.7 79.2 67.5Z" fill="white"/>
<path d="M51.3 67.5C51.6 67.5 51.9 67.5 52.2 67.5V67.6C52.2 68.3 52.2 69 52.2 69.7C52.2 70.5 51.6 71.1 50.8 71.1C50.6 71.1 50.3 71.1 50.1 71.1C49.4 71 49 70.4 48.9 69.7C48.9 69 48.9 68.3 48.9 67.7C48.9 67.5 49 67.5 49.1 67.5C49.3 67.5 49.5 67.5 49.8 67.5C49.8 67.6 49.8 67.7 49.8 67.8C49.8 68.4 49.8 69 49.8 69.6C49.8 70.1 50.1 70.4 50.6 70.4C51.1 70.4 51.4 70.1 51.4 69.6C51.4 69 51.4 68.4 51.4 67.8C51.3 67.7 51.3 67.6 51.3 67.5Z" fill="white"/>
<path d="M85.7 67.5C86 67.5 86.2 67.5 86.4 67.5C86.6 67.5 86.6 67.6 86.6 67.7C86.6 68.3 86.6 68.9 86.6 69.5C86.6 70.1 87 70.4 87.6 70.3C87.9 70.2 88.1 70 88.1 69.8C88.1 69.3 88.1 68.9 88.1 68.4C88.1 68.1 88.1 67.8 88.1 67.5C88.4 67.5 88.7 67.5 88.9 67.5V67.6C88.9 68.3 88.9 69 88.9 69.7C88.9 70.5 88.3 71.1 87.5 71.1C87.2 71.1 86.9 71.1 86.6 71C86 70.8 85.7 70.3 85.6 69.7C85.7 69 85.7 68.3 85.7 67.5Z" fill="white"/>
<path d="M111.8 67.5C112.1 67.5 112.3 67.5 112.5 67.5C112.7 67.5 112.7 67.6 112.7 67.7C112.7 68.3 112.7 68.9 112.7 69.6C112.7 70.2 113.1 70.5 113.7 70.3C114 70.2 114.2 70 114.2 69.6C114.2 69 114.2 68.4 114.2 67.8C114.2 67.7 114.2 67.6 114.2 67.5C114.5 67.5 114.8 67.5 115 67.5V67.6C115 68.4 115 69.1 115 69.9C115 70.6 114.4 71.2 113.6 71.2C113.3 71.2 112.9 71.2 112.6 71.1C112 70.9 111.7 70.5 111.6 69.9C111.6 69.8 111.6 69.7 111.6 69.6C111.8 68.9 111.8 68.2 111.8 67.5Z" fill="white"/>
<path d="M127.6 67C126.8 67 126 67 125.1 67C125.1 66.7 125.1 66.5 125.1 66.2C126.2 66.2 127.4 66.2 128.6 66.2C128.6 66.5 128.6 66.8 128.5 67.1C127.9 68.4 127.3 69.7 126.6 71C126.5 71.2 126.4 71.3 126.2 71.3C126 71.3 125.8 71.3 125.5 71.3C126.2 69.7 126.9 68.4 127.6 67Z" fill="white"/>
<path d="M119.6 68.5C119.4 68.3 119.1 68.2 118.8 68.2C118.7 68.2 118.5 68.3 118.5 68.4C118.5 68.5 118.6 68.6 118.7 68.7C118.9 68.8 119 68.8 119.2 68.9C119.4 69 119.6 69 119.8 69.1C120.2 69.3 120.3 69.6 120.3 70C120.3 70.4 120.1 70.7 119.7 70.9C119 71.2 118.3 71.2 117.7 70.8C117.5 70.7 117.4 70.5 117.3 70.4C117.5 70.2 117.7 70.1 117.9 69.9C118.2 70.3 118.6 70.4 119.1 70.3C119.3 70.3 119.5 70.2 119.5 70C119.5 69.9 119.3 69.7 119.2 69.7C119 69.6 118.7 69.5 118.4 69.4C117.8 69.2 117.5 68.8 117.6 68.3C117.7 67.8 118 67.5 118.6 67.3C119.1 67.2 119.8 67.4 120 67.9C120 68.1 119.8 68.3 119.6 68.5Z" fill="white"/>
<path d="M42.7 68.3C42.5 68.3 42.4 68.3 42.2 68.3C42.2 68 42.2 67.8 42.2 67.5C42.3 67.5 42.5 67.5 42.6 67.5C42.6 67 42.6 66.6 42.6 66.2C42.9 66.2 43.2 66.2 43.5 66.2C43.5 66.6 43.5 67.1 43.5 67.5C43.8 67.5 44 67.5 44.2 67.5C44.2 67.8 44.2 68 44.2 68.3C44 68.3 43.7 68.3 43.5 68.3C43.5 69.2 43.5 70.2 43.5 71.1C43.2 71.1 42.9 71.1 42.6 71.1C42.7 70.2 42.7 69.3 42.7 68.3Z" fill="white"/>
<path d="M124.3 71.1C124 71.1 123.7 71.1 123.4 71.1C123.4 69.7 123.4 68.4 123.4 67C123.2 67 123 67 122.7 67C122.7 66.7 122.7 66.4 122.7 66.1C123.2 66.1 123.7 66.1 124.2 66.1C124.2 66.1 124.3 66.2 124.3 66.3C124.3 66.7 124.3 67 124.3 67.4C124.3 68.5 124.3 69.6 124.3 70.8C124.3 70.9 124.3 71 124.3 71.1Z" fill="white"/>
<path d="M84.4 71.1C84.1 71.1 83.8 71.1 83.5 71.1C83.5 70.2 83.5 69.3 83.5 68.3C83.3 68.3 83.2 68.3 83 68.3C83 68 83 67.8 83 67.5C83.1 67.5 83.3 67.5 83.4 67.5C83.4 67.1 83.4 66.6 83.4 66.2C83.7 66.2 84 66.2 84.3 66.2C84.3 66.6 84.3 67.1 84.3 67.6C84.6 67.6 84.8 67.6 85.1 67.6C85.1 67.9 85.1 68.1 85.1 68.4C84.9 68.4 84.8 68.4 84.6 68.4C84.4 68.4 84.3 68.5 84.3 68.7C84.3 69.5 84.3 70.3 84.3 71.1C84.4 71 84.4 71 84.4 71.1Z" fill="white"/>
<path d="M55.2 68.3C55 68.3 54.9 68.3 54.8 68.3C54.2 68.3 53.9 68.7 53.9 69.2C53.9 69.7 53.9 70.3 53.9 70.8C53.9 70.9 53.9 71 53.9 71C53.6 71 53.3 71 53 71C53 70.9 53 70.8 53 70.8C53 69.8 53 68.7 53 67.7C53 67.5 53.1 67.4 53.3 67.4C53.5 67.4 53.7 67.4 53.9 67.4C53.9 67.5 53.9 67.7 53.9 67.8C54.1 67.7 54.2 67.6 54.4 67.5C54.4 67.5 54.5 67.5 54.5 67.4C55.1 67.2 55.2 67.3 55.2 67.9C55.2 68.1 55.2 68.2 55.2 68.3Z" fill="white"/>
<path d="M89.9 67.5C90.2 67.5 90.5 67.5 90.7 67.5C90.7 67.6 90.7 67.7 90.7 67.9C91.1 67.5 91.5 67.4 92 67.5C92 67.8 92 68 92 68.3C91.9 68.3 91.8 68.3 91.7 68.3C91.1 68.3 90.7 68.6 90.7 69.3C90.7 69.9 90.7 70.5 90.7 71.1C90.4 71.1 90.1 71.1 89.8 71.1C89.9 69.9 89.9 68.7 89.9 67.5Z" fill="white"/>
<path d="M31.1 67.5C31.4 67.5 31.7 67.5 31.9 67.5C31.9 67.6 31.9 67.7 31.9 67.9C32 67.9 32 67.8 32 67.8C32.3 67.5 32.6 67.4 33 67.5C33.1 67.5 33.1 67.6 33.1 67.7C33.1 67.9 33.1 68.1 33.1 68.4C33 68.4 32.8 68.4 32.7 68.4C32.1 68.4 31.8 68.7 31.8 69.3C31.8 69.8 31.8 70.4 31.8 70.9C31.8 71 31.8 71.1 31.8 71.2C31.5 71.2 31.2 71.2 30.9 71.2C31.1 69.9 31.1 68.7 31.1 67.5Z" fill="white"/>
<path d="M116.8 71.1C116.5 71.1 116.2 71.1 115.9 71.1C115.9 69.9 115.9 68.7 115.9 67.5C116.2 67.5 116.5 67.5 116.8 67.5C116.8 68.7 116.8 69.9 116.8 71.1Z" fill="white"/>
<path d="M78.2 71.1C77.9 71.1 77.7 71.1 77.4 71.1C77.4 69.9 77.4 68.7 77.4 67.5C77.7 67.5 77.9 67.5 78.2 67.5C78.2 68.7 78.2 69.9 78.2 71.1Z" fill="white"/>
<path d="M36.4 66.1C36.2 66.5 36 66.8 35.7 67.1C35.7 67.2 35.5 67.2 35.4 67.2C35.3 67.2 35.1 67.2 35 67.2C35.1 66.9 35.2 66.5 35.3 66.2C35.3 66.2 35.4 66.1 35.5 66.1C35.8 66.1 36.1 66.1 36.4 66.1Z" fill="white"/>
<path d="M116.9 66.6C116.9 66.9 116.7 67.1 116.4 67.1C116.1 67.1 115.9 66.9 115.9 66.6C115.9 66.3 116.1 66.1 116.4 66.1C116.7 66.1 116.9 66.3 116.9 66.6Z" fill="white"/>
<path d="M78.3 66.6C78.3 66.9 78 67.1 77.8 67.1C77.5 67.1 77.3 66.9 77.3 66.6C77.3 66.3 77.6 66.1 77.8 66.1C78.1 66.1 78.3 66.3 78.3 66.6Z" fill="white"/>
<path d="M41.3 50.1C41.3 51.5 41.1 52.8 40.6 54.1C40 55.5 39.1 56.5 37.7 57C35.8 57.6 33.7 57 32.5 55C31.9 54 31.5 52.8 31.4 51.6C31.3 50.3 31.3 49 31.5 47.7C31.8 46.5 32.2 45.4 33 44.5C35 42.4 38.2 42.6 39.9 45C40.6 46 40.9 47.1 41.1 48.2C41.3 48.8 41.3 49.5 41.3 50.1Z" fill="#12395C"/>
<path d="M135.5 69.5C135.5 70 135.1 70.3 134.6 70.3C134.1 70.3 133.7 69.9 133.7 69.5C133.7 69.1 134.1 68.7 134.6 68.7C135.1 68.7 135.5 69.1 135.5 69.5Z" fill="#12395C"/>
<path d="M134.6 68C134.3 68 134 67.8 134 67.4C134 67.1 134.2 66.8 134.6 66.8C134.9 66.8 135.2 67 135.2 67.3C135.2 67.7 134.9 68 134.6 68Z" fill="#12395C"/>
<path d="M70.6 68.2C71.2 68.2 71.6 68.7 71.6 69.3C71.6 69.9 71.1 70.4 70.5 70.4C69.9 70.4 69.4 69.9 69.4 69.3C69.5 68.7 70 68.2 70.6 68.2Z" fill="#12395C"/>
<path d="M100.5 68.2C101.1 68.2 101.6 68.7 101.6 69.3C101.6 69.9 101.1 70.4 100.5 70.4C99.9 70.4 99.5 69.9 99.5 69.3C99.5 68.7 99.9 68.2 100.5 68.2Z" fill="#12395C"/>
<path d="M58.7 69.3C58.7 68.7 59.1 68.2 59.8 68.2C60.4 68.2 60.9 68.7 60.9 69.3C60.9 69.9 60.4 70.4 59.8 70.4C59.1 70.4 58.7 69.9 58.7 69.3Z" fill="#12395C"/>
<path d="M110.3 69.3C110.3 69.9 109.8 70.4 109.3 70.4C108.7 70.4 108.2 69.9 108.2 69.3C108.2 68.7 108.7 68.2 109.3 68.2C109.9 68.2 110.3 68.7 110.3 69.3Z" fill="#12395C"/>
<path d="M39.6 68.2C40.2 68.2 40.7 68.7 40.7 69.3C40.7 69.9 40.2 70.4 39.6 70.4C39 70.4 38.5 69.9 38.6 69.3C38.6 68.7 39 68.2 39.6 68.2Z" fill="#12395C"/>
<path d="M104 68.9C104.1 68.4 104.6 68.1 105 68.2C105.5 68.2 105.8 68.5 105.8 68.9C105.2 68.9 104.6 68.9 104 68.9Z" fill="#12395C"/>
<path d="M75.8 68.9C75.7 68.9 75.6 68.9 75.6 68.9C75.1 68.9 74.6 68.9 74 68.9C74 68.5 74.4 68.2 74.9 68.2C75.4 68.1 75.8 68.5 75.8 68.9Z" fill="#12395C"/>
<path d="M65 68.9C64.4 68.9 63.8 68.9 63.2 68.9C63.2 68.5 63.6 68.2 64.1 68.2C64.6 68.1 65 68.5 65 68.9Z" fill="#12395C"/>
<path d="M47.3 68.9C46.7 68.9 46.1 68.9 45.5 68.9C45.6 68.5 46 68.1 46.5 68.2C47 68.2 47.3 68.5 47.3 68.9Z" fill="#12395C"/>
<path d="M93.2 68.9C93.3 68.4 93.8 68.1 94.3 68.2C94.8 68.3 95 68.5 95 68.9C94.5 68.9 93.9 68.9 93.2 68.9Z" fill="#12395C"/>
<path d="M34.5 68.9C34.6 68.5 35 68.2 35.5 68.2C36 68.2 36.3 68.5 36.4 68.9C35.7 68.9 35.1 68.9 34.5 68.9Z" fill="#12395C"/>
</svg>
