<svg width="96" height="96" viewBox="0 0 96 96" fill="none" xmlns="http://www.w3.org/2000/svg">
<path d="M48 96C74.5097 96 96 74.5097 96 48C96 21.4903 74.5097 0 48 0C21.4903 0 0 21.4903 0 48C0 74.5097 21.4903 96 48 96Z" fill="#34D789"/>
<path d="M23.0435 35.4058L18 35.4058" stroke="white" stroke-width="3" stroke-linecap="round" stroke-linejoin="round"/>
<rect x="22.2029" y="27" width="48.7536" height="15.971" rx="1.8291" fill="white" stroke="white" stroke-width="3" stroke-linecap="round" stroke-linejoin="round"/>
<path d="M71.3768 35.231H77.5V48.0347L48.1062 52.3788L48.1062 58" stroke="white" stroke-width="3" stroke-linecap="round" stroke-linejoin="round"/>
<path fill-rule="evenodd" clip-rule="evenodd" d="M53.1362 59H43.5334V64.0299C44.0888 64.447 44.448 65.1111 44.448 65.8591C44.448 66.6072 44.0888 67.2713 43.5334 67.6884V75.9192C43.5334 78.4447 45.5807 80.4919 48.1062 80.4919H48.5635C51.0889 80.4919 53.1362 78.4447 53.1362 75.9192V67.6884C52.5809 67.2713 52.2217 66.6072 52.2217 65.8591C52.2217 65.1111 52.5809 64.447 53.1362 64.0299V59Z" fill="#34D789"/>
<path d="M43.5334 59V57.5C42.705 57.5 42.0334 58.1716 42.0334 59H43.5334ZM53.1362 59H54.6362C54.6362 58.1716 53.9647 57.5 53.1362 57.5V59ZM43.5334 64.0299H42.0334C42.0334 64.5016 42.2554 64.9459 42.6326 65.2292L43.5334 64.0299ZM43.5334 67.6884L42.6326 66.4891C42.2554 66.7724 42.0334 67.2166 42.0334 67.6884H43.5334ZM53.1362 67.6884H54.6362C54.6362 67.2166 54.4143 66.7724 54.0371 66.4891L53.1362 67.6884ZM53.1362 64.0299L54.0371 65.2292C54.4143 64.9459 54.6362 64.5016 54.6362 64.0299H53.1362ZM43.5334 60.5H53.1362V57.5H43.5334V60.5ZM45.0334 64.0299V59H42.0334V64.0299H45.0334ZM45.948 65.8591C45.948 64.6194 45.3506 63.5188 44.4343 62.8305L42.6326 65.2292C42.827 65.3752 42.948 65.6028 42.948 65.8591H45.948ZM44.4343 68.8878C45.3506 68.1995 45.948 67.0989 45.948 65.8591H42.948C42.948 66.1154 42.827 66.343 42.6326 66.4891L44.4343 68.8878ZM45.0334 75.9192V67.6884H42.0334V75.9192H45.0334ZM48.1062 78.9919C46.4092 78.9919 45.0334 77.6162 45.0334 75.9192H42.0334C42.0334 79.2731 44.7523 81.9919 48.1062 81.9919V78.9919ZM48.5635 78.9919H48.1062V81.9919H48.5635V78.9919ZM51.6362 75.9192C51.6362 77.6162 50.2605 78.9919 48.5635 78.9919V81.9919C51.9174 81.9919 54.6362 79.2731 54.6362 75.9192H51.6362ZM51.6362 67.6884V75.9192H54.6362V67.6884H51.6362ZM50.7217 65.8591C50.7217 67.0989 51.3191 68.1995 52.2354 68.8878L54.0371 66.4891C53.8427 66.343 53.7217 66.1154 53.7217 65.8591H50.7217ZM52.2354 62.8305C51.3191 63.5188 50.7217 64.6194 50.7217 65.8591H53.7217C53.7217 65.6028 53.8427 65.3752 54.0371 65.2292L52.2354 62.8305ZM51.6362 59V64.0299H54.6362V59H51.6362Z" fill="white"/>
</svg>
