<svg width="150" height="110" viewBox="0 0 150 110" fill="none" xmlns="http://www.w3.org/2000/svg">
<path d="M150 51.9H0V75.2H150V51.9Z" fill="#868686"/>
<path d="M150 35H0V51.9H150V35Z" fill="#233E63"/>
<path d="M16.8 35H0V51.9H16.8V35Z" fill="#CF253C"/>
<path d="M150 35H133.2V51.9H150V35Z" fill="#0072B4"/>
<path d="M12.8 65.8C12.9 65.9 13.1 66.1 13.2 66.2C13.4 66.3 13.5 66.4 13.7 66.6C13.9 66.7 14.1 66.8 14.3 66.9C14.5 67 14.8 67 15 67C15.2 67 15.3 67 15.5 66.9C15.7 66.9 15.8 66.8 15.9 66.7C16 66.6 16.1 66.5 16.2 66.4C16.3 66.3 16.3 66.1 16.3 66C16.3 65.7 16.1 65.4 15.8 65.2C15.5 65 14.9 64.8 14.2 64.7C13.8 64.6 13.5 64.5 13.2 64.4C12.9 64.2 12.6 64.1 12.4 63.9C12.2 63.7 12 63.4 11.9 63.2C12.1 62.7 12 62.4 12 62C12 61.6 12.1 61.3 12.2 61C12.3 60.7 12.5 60.4 12.8 60.1C13.1 59.8 13.4 59.6 13.8 59.5C14.2 59.4 14.7 59.3 15.3 59.3C15.8 59.3 16.2 59.3 16.5 59.4C16.9 59.5 17.2 59.6 17.4 59.7C17.6 59.8 17.9 60 18 60.1C18.2 60.2 18.3 60.3 18.4 60.4L17.2 61.7C17.1 61.6 17 61.5 16.8 61.4C16.7 61.3 16.5 61.2 16.4 61.1C16.2 61 16.1 61 15.9 60.9C15.8 61 15.5 61 15.3 61C15.2 61 15 61 14.9 61.1C14.8 61.1 14.6 61.2 14.5 61.3C14.4 61.4 14.3 61.5 14.2 61.6C14.1 61.7 14.1 61.8 14.1 61.9C14.1 62.2 14.3 62.4 14.6 62.6C14.9 62.8 15.4 62.9 16 63.1C16.3 63.2 16.7 63.3 17 63.4C17.3 63.5 17.6 63.7 17.9 63.9C18.2 64.1 18.4 64.4 18.5 64.7C18.7 65 18.7 65.4 18.7 65.9C18.7 66.3 18.6 66.7 18.4 67C18.2 67.3 18 67.6 17.7 67.9C17.4 68.1 17 68.3 16.6 68.5C16.2 68.6 15.7 68.7 15.2 68.7C14.7 68.7 14.3 68.7 13.9 68.6C13.5 68.5 13.2 68.4 12.9 68.3C12.6 68.2 12.3 68 12.1 67.8C11.9 67.6 11.6 67.4 11.5 67.3L12.8 65.8Z" fill="white"/>
<path d="M25.8 67.7C25.7 67.7 25.6 67.8 25.5 67.9C25.4 68 25.2 68.1 24.9 68.2C24.7 68.3 24.4 68.4 24.1 68.5C23.8 68.6 23.4 68.6 23 68.6C22.4 68.6 22 68.5 21.5 68.4C21.1 68.2 20.7 68 20.4 67.7C20.1 67.4 19.9 67.1 19.7 66.6C19.5 66.2 19.5 65.7 19.5 65.2C19.5 64.8 19.6 64.4 19.7 63.9C19.9 63.5 20.1 63.1 20.3 62.8C20.6 62.5 20.9 62.3 21.3 62.1C21.7 61.9 22.2 61.8 22.7 61.8C23.2 61.8 23.7 61.9 24.1 62.1C24.5 62.3 24.8 62.5 25.1 62.8C25.4 63.1 25.6 63.5 25.7 63.9C25.8 64.3 26 65 26 65.5V65.8H21.4C21.4 66.1 21.6 66.4 21.9 66.7C22.2 67 22.6 67.1 23.1 67.1C23.6 67.1 24 67 24.4 66.9C24.7 66.8 25 66.6 25.1 66.5L25.8 67.7ZM24.1 64.6C24.1 64.5 24.1 64.3 24 64.2C23.9 64.1 23.9 63.9 23.8 63.8C23.7 63.7 23.6 63.6 23.4 63.5C23.2 63.4 23 63.4 22.8 63.4C22.6 63.4 22.4 63.4 22.2 63.5C22 63.6 21.9 63.7 21.8 63.8C21.7 63.9 21.6 64 21.5 64.2C21.4 64.3 21.4 64.5 21.4 64.6H24.1Z" fill="white"/>
<path d="M27.1 59.5H29.2V61.2H27.1V59.5ZM27.2 62.2H29.2V68.4H27.2V62.2Z" fill="white"/>
<path d="M31.6 69.2C31.9 69.4 32.1 69.5 32.4 69.6C32.7 69.7 33 69.7 33.4 69.7C33.9 69.7 34.2 69.6 34.5 69.4C34.8 69.2 34.9 68.8 34.9 68.4V68C34.5 68.3 33.9 68.5 33.2 68.5C32.7 68.5 32.3 68.4 32 68.3C31.6 68.2 31.3 67.9 31.1 67.7C30.9 67.4 30.7 67.1 30.5 66.8C30.4 66.4 30.3 66 30.3 65.6C30.3 65.1 30.4 64.6 30.6 64.2C30.8 63.8 31 63.4 31.4 63.1C31.7 62.8 32.1 62.6 32.6 62.4C33.1 62.2 33.6 62.2 34.1 62.2C34.6 62.2 35.1 62.2 35.6 62.3C36.1 62.4 36.5 62.5 36.9 62.6V68.3C36.9 69.3 36.6 70.1 36 70.6C35.4 71.1 34.6 71.3 33.6 71.3C33 71.3 32.5 71.2 32.1 71.1C31.7 71 31.3 70.8 30.9 70.6L31.6 69.2ZM34.8 63.8C34.7 63.8 34.5 63.7 34.4 63.7C34.3 63.7 34.1 63.7 33.9 63.7C33.6 63.7 33.4 63.7 33.2 63.8C33 63.9 32.8 64 32.7 64.2C32.6 64.4 32.5 64.5 32.4 64.7C32.3 64.9 32.3 65.1 32.3 65.4C32.3 65.9 32.4 66.2 32.6 66.5C32.8 66.8 33.2 66.9 33.6 66.9C34 66.9 34.3 66.8 34.5 66.6C34.7 66.4 34.8 66.1 34.8 65.7V63.8Z" fill="white"/>
<path d="M38.6 62.2H40.5L40.6 62.9C40.8 62.7 41.1 62.5 41.4 62.3C41.7 62.1 42.1 62.1 42.5 62.1C43.2 62.1 43.8 62.3 44.3 62.7C44.7 63.1 44.9 63.8 44.9 64.6V68.5H42.9V64.9C42.9 64.6 42.8 64.3 42.6 64.1C42.4 63.9 42.2 63.8 41.9 63.8C41.7 63.8 41.5 63.8 41.3 63.9C41.1 64 41 64.1 40.9 64.2C40.8 64.3 40.7 64.5 40.7 64.6C40.6 64.8 40.6 64.9 40.6 65.1V68.4H38.6V62.2Z" fill="white"/>
<path d="M52.8 67.7C52.7 67.7 52.6 67.8 52.5 67.9C52.4 68 52.2 68.1 51.9 68.2C51.7 68.3 51.4 68.4 51.1 68.5C50.8 68.6 50.4 68.6 50 68.6C49.4 68.6 49 68.5 48.5 68.4C48.1 68.2 47.7 68 47.4 67.7C47.1 67.4 46.9 67.1 46.7 66.6C46.5 66.1 46.5 65.7 46.5 65.2C46.5 64.8 46.6 64.4 46.7 63.9C46.9 63.5 47.1 63.1 47.3 62.8C47.6 62.5 47.9 62.3 48.3 62.1C48.7 61.9 49.2 61.8 49.7 61.8C50.2 61.8 50.7 61.9 51.1 62.1C51.5 62.3 51.8 62.5 52.1 62.8C52.4 63.1 52.6 63.5 52.7 63.9C52.8 64.3 53 65 53 65.5V65.8H48.4C48.4 66.1 48.6 66.4 48.9 66.7C49.2 67 49.6 67.1 50.1 67.1C50.6 67.1 51 67 51.4 66.9C51.7 66.8 52 66.6 52.1 66.5L52.8 67.7ZM51.1 64.6C51.1 64.5 51.1 64.3 51 64.2C50.9 64.1 50.9 63.9 50.8 63.8C50.7 63.7 50.6 63.6 50.4 63.5C50.2 63.4 50 63.4 49.8 63.4C49.6 63.4 49.4 63.4 49.2 63.5C49 63.6 48.9 63.7 48.8 63.8C48.7 63.9 48.6 64 48.5 64.2C48.4 64.3 48.4 64.5 48.4 64.6H51.1Z" fill="white"/>
<path d="M54.5 62.2H56.5V65.8C56.5 66.2 56.6 66.4 56.8 66.6C57 66.8 57.2 66.9 57.6 66.9C57.8 66.9 58 66.9 58.1 66.8C58.3 66.7 58.4 66.6 58.5 66.5C58.6 66.4 58.7 66.2 58.7 66.1C58.7 66 58.8 65.8 58.8 65.6V62.2H60.8V68.4H58.9L58.8 67.7C58.6 67.9 58.3 68.1 58 68.3C57.7 68.5 57.3 68.5 56.9 68.5C56.2 68.5 55.6 68.3 55.1 67.9C54.7 67.5 54.5 66.8 54.5 66V62.2Z" fill="white"/>
<path d="M62.6 62.2H64.5L64.6 63C64.8 62.8 65 62.6 65.3 62.4C65.6 62.2 66 62.1 66.4 62.1C66.6 62.1 66.7 62.1 66.8 62.1C66.9 62.1 67 62.1 67.2 62.2L66.9 63.9C66.7 63.8 66.5 63.8 66.2 63.8C65.7 63.8 65.4 63.9 65.1 64.2C64.8 64.5 64.7 64.8 64.7 65.3V68.4H62.7C62.6 68.4 62.6 62.2 62.6 62.2Z" fill="white"/>
<path d="M68.4 59.5H70.5V61.2H68.4V59.5ZM68.5 62.2H70.5V68.4H68.5V62.2Z" fill="white"/>
<path d="M78.3 67.7C78.2 67.7 78.1 67.8 78 67.9C77.9 68 77.7 68.1 77.4 68.2C77.2 68.3 76.9 68.4 76.6 68.5C76.3 68.6 75.9 68.6 75.5 68.6C74.9 68.6 74.5 68.5 74 68.4C73.6 68.2 73.2 68 72.9 67.7C72.6 67.4 72.4 67.1 72.2 66.6C72 66.2 72 65.7 72 65.2C72 64.8 72.1 64.4 72.2 63.9C72.4 63.5 72.6 63.1 72.8 62.8C73.1 62.5 73.4 62.3 73.8 62.1C74.2 61.9 74.7 61.8 75.2 61.8C75.7 61.8 76.2 61.9 76.6 62.1C77 62.3 77.3 62.5 77.6 62.8C77.9 63.1 78.1 63.5 78.2 63.9C78.3 64.3 78.4 64.8 78.4 65.3V65.6H73.8C73.8 65.9 74 66.2 74.3 66.5C74.6 66.8 75 66.9 75.5 66.9C76 66.9 76.4 66.8 76.8 66.7C77.1 66.6 77.4 66.4 77.5 66.3L78.3 67.7ZM76.6 64.6C76.6 64.5 76.6 64.3 76.5 64.2C76.4 64.1 76.4 63.9 76.3 63.8C76.2 63.7 76.1 63.6 75.9 63.5C75.7 63.4 75.5 63.4 75.3 63.4C75.1 63.4 74.9 63.4 74.7 63.5C74.5 63.6 74.4 63.7 74.3 63.8C74.1 64 74 64.1 74 64.2C73.9 64.3 73.9 64.5 73.9 64.6H76.6V64.6Z" fill="white"/>
<path d="M88.5 63.5H92V67.3C91.5 67.7 91 68 90.3 68.2C89.7 68.4 88.9 68.5 88.1 68.5C87.4 68.5 86.7 68.4 86.1 68.2C85.5 68 85 67.7 84.6 67.3C84.2 66.9 83.9 66.4 83.7 65.8C83.5 65.2 83.4 64.6 83.4 63.9C83.4 63.2 83.5 62.6 83.7 62.1C83.9 61.5 84.3 61 84.7 60.6C85.1 60.2 85.6 59.9 86.2 59.6C86.8 59.4 87.4 59.2 88.1 59.2C88.9 59.2 89.7 59.3 90.3 59.6C90.9 59.9 91.4 60.3 91.9 60.8L90.5 62.1C90.2 61.8 89.9 61.5 89.5 61.3C89.1 61.1 88.7 61 88.2 61C87.8 61 87.4 61.1 87.1 61.2C86.8 61.4 86.5 61.6 86.3 61.8C86.1 62.1 85.9 62.4 85.8 62.7C85.7 63 85.6 63.4 85.6 63.8C85.6 64.2 85.7 64.6 85.8 65C85.9 65.3 86.1 65.6 86.4 65.9C86.6 66.1 86.9 66.3 87.3 66.5C87.6 66.6 88 66.7 88.4 66.7C88.8 66.7 89.1 66.7 89.4 66.6C89.7 66.5 90 66.4 90.2 66.2V65.1H88.6V63.5H88.5Z" fill="white"/>
<path d="M97.5 67.8C97.3 68 97 68.2 96.7 68.4C96.4 68.5 96 68.6 95.6 68.6C95.4 68.6 95.1 68.6 94.9 68.5C94.6 68.4 94.4 68.3 94.2 68.2C94 68.1 93.8 67.9 93.7 67.6C93.6 67.4 93.5 67 93.5 66.7C93.5 66.3 93.6 66 93.7 65.7C93.8 65.4 94.1 65.2 94.3 65C94.6 64.8 94.9 64.7 95.2 64.6C95.6 64.5 96 64.5 96.4 64.5C96.6 64.5 96.9 64.5 97.1 64.5C97.3 64.5 97.5 64.5 97.6 64.5V64.4C97.6 64.2 97.6 64.1 97.5 64C97.4 63.9 97.3 63.8 97.2 63.7C97.1 63.6 97 63.6 96.8 63.5C96.6 63.4 96.5 63.5 96.3 63.5C95.9 63.5 95.5 63.6 95.2 63.7C94.9 63.8 94.7 63.9 94.5 64.1L93.7 62.9C93.8 62.8 94 62.7 94.2 62.6C94.4 62.5 94.6 62.4 94.8 62.3C95 62.2 95.3 62.2 95.6 62.1C95.9 62.1 96.2 62 96.6 62C97.6 62 98.3 62.3 98.8 62.8C99.3 63.3 99.5 64 99.5 64.8V68.4H97.6L97.5 67.8ZM97.5 65.7C97.5 65.7 97.4 65.7 97.2 65.7C97.1 65.7 96.9 65.7 96.8 65.7C96.2 65.7 95.9 65.8 95.6 65.9C95.4 66.1 95.3 66.3 95.3 66.5C95.3 67 95.6 67.3 96.3 67.3C96.5 67.3 96.6 67.3 96.8 67.2C97 67.2 97.1 67.1 97.2 67C97.3 66.9 97.4 66.8 97.5 66.7C97.6 66.6 97.6 66.4 97.6 66.2V65.7H97.5Z" fill="white"/>
<path d="M100.9 62.2H102.9V65.8C102.9 66.2 103 66.4 103.2 66.6C103.4 66.8 103.6 66.9 104 66.9C104.2 66.9 104.4 66.9 104.5 66.8C104.7 66.7 104.8 66.6 104.9 66.5C105 66.4 105.1 66.2 105.1 66.1C105.2 65.9 105.2 65.8 105.2 65.6V62.2H107.2V68.4H105.3L105.2 67.7C105 67.9 104.7 68.1 104.4 68.3C104.1 68.5 103.7 68.5 103.3 68.5C102.6 68.5 102 68.3 101.5 67.9C101.1 67.5 100.9 66.8 100.9 66V62.2Z" fill="white"/>
<path d="M109.5 63.7H108.5V62.2H109.5V60.3H111.5V62.2H113.2V63.7H111.5V66.2C111.5 66.5 111.6 66.7 111.7 66.9C111.8 67.1 112 67.1 112.3 67.1C112.5 67.1 112.7 67.1 112.8 67C112.9 66.9 113.1 66.9 113.2 66.8L114 68C113.4 68.5 112.7 68.7 112 68.7C111.5 68.7 111.2 68.6 110.8 68.5C110.5 68.4 110.2 68.2 110 68C109.8 67.8 109.7 67.5 109.6 67.2C109.5 66.9 109.5 66.5 109.5 66.1V63.7Z" fill="white"/>
<path d="M115.2 59.5H117.2V62.7C117.4 62.5 117.7 62.3 118 62.1C118.4 62 118.7 61.9 119.1 61.9C119.8 61.9 120.4 62.1 120.9 62.5C121.3 62.9 121.6 63.6 121.6 64.4V68.3H119.6V64.7C119.6 64.3 119.5 64.1 119.3 63.9C119.1 63.7 118.8 63.6 118.5 63.6C118.3 63.6 118.1 63.6 117.9 63.7C117.7 63.8 117.6 63.9 117.5 64C117.4 64.1 117.3 64.3 117.3 64.4C117.3 64.5 117.2 64.7 117.2 64.9V68.2H115.2V59.5Z" fill="white"/>
<path d="M122.7 59.5H124.8V61.2H122.7V59.5ZM122.8 62.2H124.8V68.4H122.8V62.2Z" fill="white"/>
<path d="M132.5 67.7C132.4 67.7 132.3 67.8 132.2 67.9C132.1 68 131.9 68.1 131.6 68.2C131.3 68.3 131.1 68.4 130.8 68.5C130.5 68.6 130.1 68.6 129.7 68.6C129.1 68.6 128.7 68.5 128.2 68.4C127.8 68.2 127.4 68 127.1 67.7C126.8 67.4 126.6 67.1 126.4 66.6C126.2 66.2 126.2 65.7 126.2 65.2C126.2 64.8 126.3 64.4 126.4 63.9C126.6 63.5 126.8 63.1 127 62.8C127.3 62.5 127.6 62.3 128 62.1C128.4 61.9 128.9 61.8 129.4 61.8C129.9 61.8 130.4 61.9 130.8 62.1C131.2 62.3 131.5 62.5 131.8 62.8C132.1 63.1 132.3 63.5 132.4 63.9C132.5 64.3 132.6 64.8 132.6 65.3V65.6H128C128 65.9 128.2 66.2 128.5 66.5C128.8 66.8 129.2 66.9 129.7 66.9C130.2 66.9 130.6 66.8 131 66.7C131.3 66.6 131.6 66.4 131.7 66.3L132.5 67.7ZM130.8 64.6C130.8 64.5 130.8 64.3 130.7 64.2C130.6 64.1 130.6 63.9 130.5 63.8C130.4 63.7 130.3 63.6 130.1 63.5C129.9 63.4 129.7 63.4 129.5 63.4C129.3 63.4 129.1 63.4 128.9 63.5C128.7 63.6 128.6 63.7 128.5 63.8C128.4 63.9 128.3 64 128.2 64.2C128.1 64.3 128.1 64.5 128.1 64.6H130.8Z" fill="white"/>
<path d="M133.9 62.2H135.8L135.9 63C136.1 62.8 136.3 62.6 136.6 62.4C136.9 62.2 137.3 62.1 137.7 62.1C137.9 62.1 138 62.1 138.1 62.1C138.2 62.1 138.3 62.1 138.5 62.2L138.2 63.9C138 63.8 137.8 63.8 137.5 63.8C137 63.8 136.7 63.9 136.4 64.2C136.1 64.5 136 64.8 136 65.3V68.4H134L133.9 62.2Z" fill="white"/>
<path d="M35 41.1H36.1V47.6H40V48.6H35V41.1Z" fill="white"/>
<path d="M42.3 41.1H47V42.1H43.4V44.3H46.1V45.3H43.4V47.7H47.3V48.7H42.3C42.3 48.6 42.3 41.1 42.3 41.1Z" fill="white"/>
<path d="M59.3 47.3C59.2 47.4 59.1 47.6 58.9 47.8C58.7 48 58.5 48.1 58.3 48.3C58.1 48.5 57.8 48.6 57.4 48.7C57.1 48.8 56.7 48.9 56.3 48.9C55.7 48.9 55.2 48.8 54.8 48.6C54.3 48.4 54 48.1 53.6 47.8C53.3 47.4 53 47 52.8 46.6C52.6 46.1 52.5 45.6 52.5 45C52.5 44.5 52.6 43.9 52.8 43.5C53 43 53.2 42.6 53.6 42.2C53.9 41.8 54.3 41.6 54.8 41.4C55.3 41.2 55.8 41.1 56.3 41.1C56.7 41.1 57.1 41.1 57.4 41.2C57.7 41.3 58 41.4 58.2 41.6C58.4 41.7 58.6 41.9 58.8 42.1C59 42.3 59.1 42.4 59.2 42.6L58.4 43.2C58.3 43.1 58.2 42.9 58.1 42.8C58 42.7 57.8 42.5 57.7 42.4C57.5 42.3 57.3 42.2 57.1 42.1C56.9 42 56.6 42 56.3 42C55.9 42 55.5 42.1 55.2 42.2C54.9 42.4 54.6 42.6 54.4 42.8C54.2 43.1 54 43.4 53.9 43.7C53.8 44.1 53.7 44.4 53.7 44.8C53.7 45.2 53.8 45.6 53.9 45.9C54 46.3 54.2 46.6 54.4 46.8C54.6 47.1 54.9 47.3 55.2 47.4C55.5 47.5 55.9 47.6 56.3 47.6C56.6 47.6 56.9 47.6 57.2 47.5C57.5 47.4 57.7 47.3 57.8 47.2C58 47.1 58.1 47 58.2 46.8C58.3 46.7 58.4 46.6 58.5 46.5L59.3 47.3Z" fill="white"/>
<path d="M64.9 48.8C64.4 48.8 63.9 48.7 63.4 48.5C62.9 48.3 62.5 48 62.2 47.7C61.9 47.3 61.6 46.9 61.4 46.4C61.2 45.9 61.1 45.4 61.1 44.9C61.1 44.4 61.2 43.8 61.4 43.4C61.6 42.9 61.9 42.5 62.2 42.2C62.5 41.8 62.9 41.6 63.4 41.4C63.9 41.2 64.4 41.1 64.9 41.1C65.4 41.1 65.9 41.2 66.4 41.4C66.9 41.6 67.3 41.9 67.6 42.2C67.9 42.6 68.2 43 68.4 43.4C68.6 43.8 68.7 44.4 68.7 44.9C68.7 45.4 68.6 46 68.4 46.4C68.2 46.9 67.9 47.3 67.6 47.7C67.3 48.1 66.9 48.3 66.4 48.5C66 48.7 65.5 48.8 64.9 48.8ZM64.9 47.8C65.3 47.8 65.7 47.7 66 47.6C66.3 47.4 66.6 47.2 66.9 47C67.1 46.7 67.3 46.4 67.4 46.1C67.5 45.8 67.6 45.4 67.6 45C67.6 44.6 67.5 44.2 67.4 43.9C67.3 43.6 67.1 43 66.9 42.8C66.7 42.5 66.4 42.3 66 42.2C65.7 42 65.3 42 64.9 42C64.5 42 64.2 42 63.8 42.1C63.5 42.3 63.2 42.5 63 42.7C62.8 43 62.6 43.3 62.5 43.6C62.4 44 62.3 44.3 62.3 44.7C62.3 45.1 62.4 45.5 62.5 45.8C62.6 46.2 62.8 46.5 63 46.7C63.2 47 63.5 47.2 63.8 47.3C64.2 47.7 64.5 47.8 64.9 47.8Z" fill="white"/>
<path d="M71.6 41.1H72.6L74.9 45L77.2 41.1H78.2L78.6 48.6H77.5L77.3 42.8L75.2 46.3H74.7L72.6 42.8L72.3 48.5H71.3L71.6 41.1Z" fill="white"/>
<path d="M81.3 41.1H83.7C84.2 41.1 84.6 41.2 85 41.3C85.3 41.4 85.6 41.6 85.8 41.8C86 42 86.1 42.3 86.2 42.5C86.3 42.8 86.3 43 86.3 43.3C86.3 43.7 86.2 44 86.1 44.3C86 44.6 85.8 44.8 85.6 45C85.4 45.2 85.1 45.3 84.8 45.4C84.5 45.5 84.2 45.5 83.8 45.5H82.4V48.4H81.3V41.1ZM83.7 44.8C84.2 44.8 84.5 44.7 84.8 44.4C85.1 44.2 85.2 43.8 85.2 43.4C85.2 43 85.1 42.6 84.8 42.4C84.5 42.2 84.2 42 83.7 42H82.4V44.7C82.3 44.8 83.7 44.8 83.7 44.8Z" fill="white"/>
<path d="M90.6 42.1H87.9V41.1H94.3V42H91.6V48.6H90.5V42.1H90.6Z" fill="white"/>
<path d="M99.4 48.8C98.9 48.8 98.4 48.7 97.9 48.5C97.4 48.3 97 48 96.7 47.7C96.4 47.3 96.1 46.9 95.9 46.4C95.7 45.9 95.6 45.4 95.6 44.9C95.6 44.4 95.7 43.8 95.9 43.4C96.1 42.9 96.4 42.5 96.7 42.2C97 41.8 97.4 41.6 97.9 41.4C98.4 41.2 98.9 41.1 99.4 41.1C99.9 41.1 100.4 41.2 100.9 41.4C101.4 41.6 101.8 41.9 102.1 42.2C102.4 42.6 102.7 43 102.9 43.4C103.1 43.9 103.2 44.4 103.2 44.9C103.2 45.4 103.1 46 102.9 46.4C102.7 46.9 102.4 47.3 102.1 47.7C101.8 48.1 101.4 48.3 100.9 48.5C100.4 48.7 99.9 48.8 99.4 48.8ZM99.4 47.8C99.8 47.8 100.2 47.7 100.5 47.6C100.8 47.4 101.1 47.2 101.4 47C101.6 46.7 101.8 46.4 101.9 46.1C102 45.8 102.1 45.4 102.1 45C102.1 44.6 102 44.2 101.9 43.9C101.8 43.5 101.6 43.2 101.4 43C101.2 42.7 100.9 42.5 100.5 42.4C100.2 42.2 99.8 42.2 99.4 42.2C99 42.2 98.6 42.3 98.3 42.4C98 42.6 97.7 42.8 97.5 43C97.2 43 97 43.4 96.9 43.7C96.8 44 96.7 44.4 96.7 44.8C96.7 45.2 96.8 45.6 96.9 45.9C97 46.3 97.2 46.6 97.4 46.8C97.6 47.1 97.9 47.3 98.2 47.4C98.6 47.7 99 47.8 99.4 47.8Z" fill="white"/>
<path d="M105.7 41.1H106.8V48.6H105.7V41.1Z" fill="white"/>
<path d="M109.6 41.1H112C112.5 41.1 112.9 41.2 113.2 41.3C113.5 41.4 113.8 41.6 114 41.8C114.2 42 114.4 42.2 114.5 42.5C114.6 42.8 114.6 43 114.6 43.3C114.6 43.8 114.5 44.2 114.3 44.6C114.1 45 113.7 45.2 113.3 45.4L115.1 48.6H113.9L112.3 45.5H110.8V48.6H109.8L109.6 41.1ZM112.1 44.6C112.6 44.6 112.9 44.5 113.2 44.2C113.4 44 113.6 43.7 113.6 43.3C113.6 42.9 113.5 42.6 113.2 42.3C112.9 42.1 112.6 42 112.1 42H110.7V44.6H112.1Z" fill="white"/>
<path d="M149.7 35.3V74.9H0.3V35.3H149.7ZM150 35H0V75.2H150V35Z" fill="white"/>
</svg>
