<svg width="150" height="110" viewBox="0 0 150 110" fill="none" xmlns="http://www.w3.org/2000/svg">
<path d="M136.392 52.5281C136.895 30.8454 104.831 14.8556 66.0702 17.1159C28.2303 19.5437 6.04539 40.9752 15.3379 64.667C24.2119 88.2751 53.2616 103.595 81.2229 99.2419C110.105 94.9724 135.388 74.2107 136.392 52.5281Z" fill="#183669"/>
<path d="M66.4888 48.0074C67.6608 47.2539 68.1631 46.6679 68.1631 46.1656C68.1631 45.8307 67.9957 45.5796 67.7446 45.3284C67.2423 44.9936 66.6562 44.9099 65.9028 45.2447C65.5679 45.4122 65.0656 45.9145 64.3122 46.8353L61.2984 50.5189L61.9681 50.9375L66.4888 48.0074Z" fill="white"/>
<path d="M127.686 61.1509C125.007 63.5787 123.081 64.667 121.239 64.667C120.653 64.667 120.151 64.4996 119.9 64.2484C119.565 63.9973 119.481 63.495 119.481 62.9089C119.481 62.1555 119.649 61.3183 119.984 60.3974C122.914 59.4766 125.09 58.472 126.597 57.3836C128.104 56.2953 128.941 55.1233 128.941 53.9513C128.941 53.3652 128.69 52.8629 128.272 52.4444C127.853 52.0258 127.267 51.8583 126.43 51.8583C125.174 51.8583 123.667 52.4444 121.993 53.6164C120.319 54.7884 118.979 56.2953 118.058 57.8859C117.137 59.4766 116.719 61.0672 116.719 62.4066C116.719 63.495 117.054 64.3321 117.807 65.0018C118.561 65.5879 119.481 65.9227 120.653 65.9227C123.332 65.9227 125.844 64.5833 128.858 61.402L129.193 61.0672H127.853V61.1509H127.686ZM125.676 53.0304C126.011 53.0304 126.346 53.1141 126.514 53.2815C126.681 53.449 126.765 53.7001 126.765 54.035C126.765 54.7884 126.095 55.7093 124.756 56.7976C123.5 57.7185 121.993 58.5557 120.486 59.2254C121.156 57.4674 121.909 55.9605 122.998 54.8721C124.002 53.6164 124.923 53.0304 125.676 53.0304Z" fill="white"/>
<path d="M74.4419 51.9421C73.1024 51.9421 71.6792 52.4444 70.256 53.3652C68.8329 54.2861 67.6608 55.5419 66.9074 57.0488C66.1539 58.5557 65.7353 59.9789 65.7353 61.2346V61.3183C63.1401 63.6624 61.2146 64.7507 59.3729 64.7507C58.7869 64.7507 58.2846 64.5833 58.0334 64.3321C57.6985 64.081 57.6148 63.5787 57.6148 62.9927C57.6148 62.2392 57.7823 61.402 58.1171 60.4812C61.0472 59.5603 63.2238 58.5557 64.7307 57.4674C66.2376 56.379 67.0748 55.207 67.0748 54.035C67.0748 53.449 66.8237 52.9467 66.4051 52.5281C65.9865 52.1095 65.4005 51.9421 64.5633 51.9421C63.3076 51.9421 61.8007 52.5281 60.1263 53.7001C58.452 54.8721 57.1125 56.379 56.1916 57.9697C55.3545 59.3928 54.9359 60.8997 54.8522 62.0718L54.7685 62.1555C54.3499 62.8252 53.8476 63.3275 53.2616 63.7461C52.6755 64.1647 52.1732 64.4158 51.7547 64.4158C51.5035 64.4158 51.4198 64.3321 51.2524 64.2484C51.1686 64.1647 51.0849 63.9973 51.0849 63.8298C51.0849 63.7461 51.1686 63.3275 52.0895 61.2346L53.8476 57.2999C54.6847 55.5419 55.0196 54.3698 55.0196 53.8675C55.0196 53.1978 54.7685 52.6955 54.2662 52.4444C53.7639 52.1095 53.0941 51.9421 52.0895 51.9421C50.2478 51.9421 48.1548 52.9467 45.8945 54.9559L50.3315 43.6541H49.578H49.4943C48.4897 43.989 46.8154 44.1564 44.7225 44.2401H44.6387L44.3039 45.2447H45.2248C46.0619 45.2447 46.3968 45.3284 46.4805 45.4122C46.5642 45.4959 46.6479 45.5796 46.6479 45.747C46.6479 45.8307 46.5642 46.0819 46.0619 47.4214L39.0297 65.5879H41.8761L43.4667 61.5695C44.1364 59.8951 44.6387 58.5557 45.0573 57.8022C45.4759 57.0488 46.0619 56.2116 46.9828 55.2907C47.82 54.4536 48.6571 53.7838 49.578 53.449C50.3315 53.1141 51.0012 52.8629 51.5872 52.8629C51.9221 52.8629 52.1732 52.9467 52.3407 53.0304C52.5081 53.1141 52.5081 53.2815 52.5081 53.449C52.5081 53.7001 52.3407 54.4536 51.3361 56.5465L49.6617 60.23C48.9083 61.8206 48.4897 62.9927 48.4897 63.6624C48.4897 64.3321 48.7409 64.8344 49.2432 65.1693C49.7455 65.5042 50.2478 65.7553 50.9175 65.7553C51.7547 65.7553 52.6755 65.4204 53.7639 64.7507C54.2662 64.4158 54.7685 63.9973 55.187 63.495C55.3545 63.9973 55.6893 64.4158 56.1079 64.8344C56.8614 65.4204 57.7823 65.7553 58.9543 65.7553C61.2984 65.7553 63.5587 64.667 66.1539 62.2392C66.3214 63.2438 66.7399 64.081 67.326 64.667C68.1631 65.3367 69.1677 65.6716 70.4235 65.6716C71.6792 65.6716 73.1024 65.253 74.3582 64.4996C75.6976 63.7461 76.8697 62.5741 77.7068 61.0672C78.544 59.644 79.0463 57.9697 79.0463 56.2953C79.0463 54.9559 78.6277 53.7001 77.8743 52.9467C76.7022 52.2769 75.6976 51.9421 74.4419 51.9421ZM70.256 64.9181C69.67 64.9181 69.1677 64.7507 68.8329 64.4158C68.498 64.081 68.3306 63.6624 68.3306 63.1601C68.3306 61.3183 68.9166 59.1417 70.0886 56.7139C71.2606 54.2861 72.7675 53.1141 74.2744 53.1141C74.9442 53.1141 75.4465 53.2815 75.6976 53.6164C76.0325 53.9513 76.1999 54.4536 76.1999 55.1233C76.1999 56.4628 75.6139 58.5557 74.5256 61.1509C73.4373 63.5787 72.0141 64.9181 70.256 64.9181ZM63.8936 53.0304C64.2284 53.0304 64.5633 53.1141 64.7307 53.2815C64.8982 53.449 64.9819 53.7001 64.9819 54.035C64.9819 54.7884 64.3122 55.7093 62.9727 56.7976C61.7169 57.7185 60.21 58.5557 58.7031 59.2254C59.3729 57.4674 60.1263 55.9605 61.2146 54.8721C62.2192 53.6164 63.1401 53.0304 63.8936 53.0304Z" fill="white"/>
<path d="M117.221 53.8675C117.64 54.2024 118.058 54.4535 118.477 54.4535C118.812 54.4535 119.147 54.3698 119.398 54.1187C119.649 53.8675 119.816 53.6164 119.816 53.1978C119.816 52.8629 119.649 52.5281 119.314 52.2769C118.979 52.0258 118.561 51.8583 118.058 51.8583C117.305 51.8583 116.468 52.2769 115.63 53.0304C114.961 53.7838 114.124 54.8721 113.119 56.5465C113.37 55.6256 113.538 54.8721 113.538 54.1187C113.538 53.3652 113.37 52.7792 113.119 52.3606C112.784 51.9421 112.366 51.7746 111.696 51.7746C110.859 51.7746 110.105 52.2769 109.017 53.0304C108.431 53.5327 107.677 54.2024 107.008 54.9559C106.84 54.2024 106.505 53.6164 106.003 53.0304C105.25 52.1932 104.161 51.7746 102.906 51.7746C101.566 51.7746 100.143 52.2769 98.7197 53.1978C97.2965 54.1187 96.1245 55.3744 95.3711 56.8813C94.6176 58.3882 94.199 59.8114 94.199 61.0672C94.199 61.4858 94.199 61.9043 94.2827 62.3229C93.4456 62.9089 92.5247 63.495 91.9387 63.8298H91.855C91.4364 64.1647 91.0178 64.4158 90.6829 64.4158C90.5155 64.4158 90.3481 64.3321 90.2643 64.2484C90.1806 64.1647 90.0969 63.9973 90.0969 63.8298C90.0969 63.3275 90.3481 62.5741 91.2689 60.23L97.8826 43.403H97.1291H97.0454C95.9571 43.7378 94.2827 43.989 92.441 43.989H92.3573L91.9387 45.0773H92.7758C93.613 45.0773 93.9479 45.161 94.0316 45.2447C94.1153 45.3284 94.199 45.4122 94.199 45.5796C94.199 45.6633 94.199 45.9145 93.7804 46.8353L91.3527 52.7792C91.1015 52.4444 90.8504 52.1932 90.4318 52.0258C90.0132 51.7746 89.4272 51.6909 88.8412 51.6909C87.6691 51.6909 86.1622 52.1932 84.5716 53.1141C82.981 54.035 81.5578 55.5419 80.4695 57.2162C79.3812 58.9743 78.8789 60.6486 78.8789 62.2392C78.8789 63.3275 79.2137 64.2484 79.8835 64.9181C80.5532 65.5879 81.3904 65.839 82.395 65.839C83.9019 65.839 85.6599 65.0019 87.418 63.3275C87.418 63.4112 87.418 63.4949 87.418 63.6624C87.418 64.3321 87.5854 64.9181 88.004 65.253C88.4226 65.5879 89.0086 65.7553 89.762 65.7553C90.5992 65.7553 91.4364 65.253 92.441 64.7507C93.5293 64.1647 94.1153 63.7461 94.7013 63.3275C94.9525 63.9135 95.2036 64.3321 95.6222 64.667C96.4594 65.3367 97.464 65.6716 98.7197 65.6716C99.9755 65.6716 101.399 65.253 102.654 64.4995C103.994 63.7461 105.166 62.5741 106.003 61.0672C106.84 59.644 107.343 57.9697 107.343 56.2953C107.343 56.2116 107.343 56.1279 107.343 56.1279C107.929 55.5419 108.598 54.8721 109.184 54.2861C110.021 53.6164 110.691 53.1141 111.026 53.1141C111.194 53.1141 111.277 53.1978 111.361 53.2815C111.445 53.3652 111.445 53.6164 111.445 53.8675C111.445 54.3698 111.11 55.4582 110.524 57.0488L107.259 65.6716H110.105L110.607 64.4158C111.445 62.1555 112.533 59.8114 114.04 57.2999C115.798 54.035 116.719 53.6164 117.054 53.6164C117.054 53.7001 117.137 53.7001 117.221 53.8675ZM98.7197 64.8344C98.1337 64.8344 97.6314 64.667 97.2965 64.3321C96.9617 63.9973 96.7942 63.5787 96.7942 63.0764C96.7942 61.2346 97.3803 59.058 98.5523 56.6302C99.7243 54.2024 101.231 53.0304 102.738 53.0304C103.408 53.0304 103.91 53.1978 104.161 53.5327C104.496 53.8675 104.664 54.3698 104.664 55.0396C104.664 56.379 104.078 58.472 102.989 61.0672C101.817 63.5787 100.394 64.8344 98.7197 64.8344ZM85.9948 63.3275C84.9065 64.2484 83.8182 64.7507 82.981 64.7507C82.5624 64.7507 82.2275 64.667 81.9764 64.3321C81.7252 64.081 81.6415 63.6624 81.6415 63.1601C81.6415 61.9043 82.2275 60.23 83.3159 58.3045C84.4042 56.379 85.5762 54.9559 86.4971 54.2024C87.418 53.449 88.2551 53.0304 89.176 53.0304C89.6783 53.0304 90.0969 53.1978 90.3481 53.449C90.6829 53.7001 90.7666 54.035 90.7666 54.3698C90.7666 54.9559 90.2643 56.2953 89.3435 58.5557C88.1714 60.7323 87.0831 62.4066 85.9948 63.3275Z" fill="white"/>
<path d="M31.9138 65.7553L42.0436 39.7194C42.0436 39.7194 57.6149 40.5566 55.6894 34.8639C55.6894 34.8639 55.1034 37.5428 42.7133 37.2916H27.8954L26.8908 39.7194H39.3646L28.7326 65.7553H31.9138Z" fill="white"/>
<path d="M35.5974 75.2153V72.2015L34.3416 74.127H34.2579L33.0859 72.2015V75.2153H32.0813V70.6109H33.1696L34.3416 72.5363L35.5974 70.6109H36.602V75.2153H35.5974Z" fill="white"/>
<path d="M41.7087 75.2153L41.2901 74.127H39.4484L39.0298 75.1316H38.1089L40.0344 70.6109H40.9553L42.8807 75.1316H41.7087V75.2153ZM40.3692 71.7829L39.7832 73.2898H40.9553L40.3692 71.7829Z" fill="white"/>
<path d="M45.3085 70.6109H44.3039V75.1316H45.3085V70.6109Z" fill="white"/>
<path d="M48.7409 75.2153C48.0712 75.2153 47.4014 74.9641 46.8991 74.5455L47.4852 73.8758C47.9037 74.2107 48.3223 74.3781 48.8246 74.3781C49.2432 74.3781 49.4944 74.2107 49.4944 73.9595C49.4944 73.7084 49.3269 73.6247 48.5735 73.3735C47.6526 73.1224 47.0666 72.8712 47.0666 72.034C47.0666 71.1969 47.7363 70.6946 48.6572 70.6946C49.3269 70.6946 49.8292 70.862 50.3315 71.2806L49.7455 71.9503C49.3269 71.6992 48.9921 71.5317 48.5735 71.5317C48.1549 71.5317 47.9875 71.6992 47.9875 71.9503C47.9875 72.2015 48.1549 72.3689 48.9083 72.5363C49.8292 72.7875 50.3315 73.1224 50.3315 73.8758C50.3315 74.713 49.6618 75.2153 48.7409 75.2153Z" fill="white"/>
<path d="M54.0988 75.299C52.7593 75.299 51.671 74.2944 51.671 72.9549C51.671 71.6992 52.6756 70.6109 54.0988 70.6109C55.522 70.6109 56.5266 71.6155 56.5266 72.9549C56.6103 74.127 55.522 75.299 54.0988 75.299ZM55.4382 72.8712C55.4382 72.1178 54.8522 71.448 54.0988 71.448C53.3453 71.448 52.7593 72.0341 52.7593 72.7875C52.7593 73.541 53.3453 74.2107 54.0988 74.2107C54.9359 74.2944 55.4382 73.6247 55.4382 72.8712Z" fill="white"/>
<path d="M61.2984 75.2153L59.1218 72.2852V75.2153H58.1172V70.6109H59.038L61.2147 73.3735V70.6109H62.1356V75.2153H61.2984Z" fill="white"/>
<path d="M68.3306 75.2153H66.5725V70.6946H68.3306C69.7537 70.6946 70.7583 71.6155 70.7583 72.9549C70.7583 74.127 69.8375 75.2153 68.3306 75.2153ZM69.7537 72.8712C69.7537 72.1178 69.2514 71.5317 68.4143 71.5317H67.6608V74.2944H68.4143C69.2514 74.2107 69.7537 73.7084 69.7537 72.8712Z" fill="white"/>
<path d="M72.349 75.2153V70.6109H75.7814V71.5318H73.4373V72.4526H75.4465V73.2898H73.4373V74.2107H75.7814V75.2153H72.349Z" fill="white"/>
<path d="M81.809 73.7921H81.0555V75.1316H80.0509V70.6109H81.8927C82.981 70.6109 83.567 71.1969 83.567 72.1178C83.6507 73.2061 82.8136 73.7921 81.809 73.7921ZM82.6461 72.2015C82.6461 71.7829 82.3113 71.5318 81.8927 71.5318H81.1392V72.8712H81.8927C82.395 72.8712 82.6461 72.6201 82.6461 72.2015Z" fill="white"/>
<path d="M85.0739 75.2153V70.6109H88.5063V71.5318H86.0785V72.4526H88.1714V73.2898H86.0785V74.2107H88.5063V75.2153H85.0739Z" fill="white"/>
<path d="M91.1852 70.6109H90.1806V75.1316H91.1852V70.6109Z" fill="white"/>
<path d="M96.2082 75.2153L94.0316 72.2852V75.2153H93.027V70.6109H93.9479L96.0408 73.3735V70.6109H97.0454V75.2153H96.2082Z" fill="white"/>
<path d="M100.896 71.5318V75.2153H99.8917V71.5318H98.5523V70.6109H102.32V71.5318H100.896Z" fill="white"/>
<path d="M105.584 75.2153C104.412 75.2153 103.659 74.5455 103.659 73.2898V70.6946H104.664V73.2898C104.664 74.0432 104.998 74.3781 105.584 74.3781C106.17 74.3781 106.505 74.0432 106.505 73.2898V70.6946H107.51V73.2898C107.594 74.5455 106.84 75.2153 105.584 75.2153Z" fill="white"/>
<path d="M112.114 75.2153L111.194 73.7921H110.44V75.2153H109.435V70.6946H111.445C112.449 70.6946 113.119 71.2806 113.119 72.1178C113.119 72.8712 112.7 73.2898 112.198 73.4572L113.286 75.0478H112.114V75.2153ZM112.114 72.2015C112.114 71.7829 111.863 71.5317 111.361 71.5317H110.356V72.7875H111.361C111.863 72.7875 112.114 72.5363 112.114 72.2015Z" fill="white"/>
<path d="M114.71 75.2153V70.6109H118.058V71.5318H115.714V72.4526H117.807V73.2898H115.714V74.2107H118.142V75.2153H114.71Z" fill="white"/>
<path d="M92.1898 77.8105C57.6986 77.8105 36.0997 85.6799 35.8485 85.7636L35.9322 86.0984C60.2938 80.322 89.5109 79.3174 104.664 79.3174C112.952 79.3174 118.309 79.5685 118.309 79.5685V79.2337C109.603 78.3128 100.813 77.8105 92.1898 77.8105Z" fill="#FFD300"/>
<path d="M127.853 23.1435L115.714 31.8501C115.714 31.8501 103.91 41.1426 102.152 43.1518C102.152 43.1518 100.98 43.8215 102.152 45.0773L103.575 47.2539C103.575 47.2539 104.496 49.012 106.589 47.5051C106.589 47.5051 113.705 42.7332 118.058 38.0451C118.058 38.0451 118.477 37.0405 119.9 36.287C119.9 36.287 121.491 35.3662 120.988 33.5244C120.988 33.5244 121.323 32.6872 123.918 31.0129C123.918 31.0129 126.346 29.5897 125.928 28.2502C125.928 28.2502 125.09 26.5759 126.43 25.3202C126.43 25.3202 128.188 23.897 128.188 23.4784L127.853 23.1435Z" fill="#00ADEE"/>
<path d="M101.566 30.678C101.566 30.678 101.399 31.6826 102.654 32.8546C102.654 32.8546 103.408 33.5244 103.826 35.0313C103.826 35.0313 104.58 37.2916 106.338 36.0359C106.338 36.0359 106.757 35.701 107.091 35.2824C107.091 35.2824 112.617 30.3431 113.789 29.5897C113.789 29.5897 115.714 27.6642 118.058 25.7387C118.058 25.7387 122.914 21.7203 123.332 18.9577C123.332 18.9577 123.332 18.1205 124.421 17.1996C124.421 17.1996 127.1 15.3579 127.183 14.3533C127.183 14.3533 126.346 14.0184 126.765 13.0975C126.765 13.0975 127.1 12.0929 127.183 11.8418L126.932 11.5069C126.932 11.5069 126.179 10.5023 112.198 21.218C112.282 21.0506 105.166 27.1619 101.566 30.678Z" fill="#EE4036"/>
<path d="M111.194 17.2833C111.194 17.2833 104.58 22.1389 97.3803 28.8362C97.3803 28.8362 90.6829 35.1987 89.9295 35.9522C89.9295 35.9522 89.3435 36.7893 88.6737 36.3707C88.6737 36.3707 86.7482 34.4453 86.3297 34.1104C86.3297 34.1104 85.2413 33.4407 85.9111 32.6872C85.9111 32.6872 91.2689 27.1619 95.6222 23.5621C95.6222 23.5621 103.743 16.8648 105.082 16.195C105.082 16.195 106.254 15.3579 107.594 16.6136C107.594 16.6136 107.761 16.8648 107.845 17.1159C107.845 17.1159 107.929 17.7019 109.017 17.1996C109.017 17.1996 109.603 16.781 109.854 16.6136C109.854 16.6136 111.612 15.5253 111.277 16.6136L111.194 17.2833Z" fill="#FFDD15"/>
<path d="M126.849 11.172C126.932 11.172 126.932 11.172 126.932 11.172L127.183 11.5069C127.1 11.758 126.765 12.7626 126.765 12.7626C126.43 13.6835 127.183 14.0184 127.183 14.0184C127.1 15.023 124.421 16.8648 124.421 16.8648C123.249 17.7856 123.332 18.6228 123.332 18.6228C122.914 21.3855 118.058 25.4039 118.058 25.4039C117.723 25.655 117.389 25.9899 117.054 26.241C118.226 26.827 119.481 27.4968 120.57 28.1665L127.937 22.8924L128.439 23.1435C128.439 23.5621 126.681 24.9853 126.681 24.9853C125.342 26.1573 126.179 27.9154 126.179 27.9154C126.514 28.92 124.923 30.1757 124.337 30.5943C132.206 36.4545 136.727 43.989 136.56 52.2769C135.639 73.9595 110.44 94.7213 81.4741 98.9908C78.2091 99.4931 74.9442 99.7443 71.763 99.7443C47.0665 99.7443 23.4584 85.345 15.5891 64.4995C6.1291 40.8914 28.2303 19.46 66.1539 17.0322C68.6654 16.8648 71.0932 16.781 73.521 16.781C83.0647 16.781 92.0224 17.8694 100.059 19.9623C102.32 18.2879 104.58 16.3625 105.25 16.0276C105.25 16.0276 105.668 15.7764 106.17 15.7764C106.589 15.7764 107.091 15.9439 107.594 16.4462C107.594 16.4462 107.761 16.6973 107.845 16.9485C107.845 16.9485 107.929 17.2833 108.263 17.2833C108.431 17.2833 108.682 17.1996 108.933 17.1159C108.933 17.1159 109.519 16.6973 109.77 16.5299C109.77 16.5299 110.524 16.0276 110.942 16.0276C111.193 16.0276 111.277 16.1113 111.193 16.5299L110.942 17.1996C110.942 17.1996 108.682 18.7902 105.417 21.5529C106.84 21.9715 108.263 22.4738 109.603 22.9761C111.026 21.7203 112.114 20.7994 112.114 20.7994C124.086 11.9255 126.43 11.172 126.849 11.172ZM126.849 10C126.263 10 124.421 10 111.528 19.9623C111.528 19.9623 110.775 20.632 109.687 21.6366C109.184 21.4692 108.682 21.3017 108.18 21.1343C110.524 19.3763 111.947 18.2042 111.947 18.1205L112.198 17.8694L112.282 17.5345L112.533 16.8648V16.781C112.7 16.1113 112.533 15.609 112.282 15.3579C112.031 15.023 111.612 14.8556 111.11 14.8556C110.44 14.8556 109.687 15.2741 109.352 15.5253C109.184 15.609 108.933 15.7764 108.682 15.9439C108.682 15.8602 108.598 15.8602 108.598 15.8602V15.6927L108.515 15.609C107.677 14.6881 106.757 14.5207 106.087 14.5207C105.333 14.5207 104.747 14.7718 104.58 14.9393C104.329 15.1067 103.575 15.5253 99.7243 18.6228C91.4364 16.6973 82.5624 15.609 73.3536 15.609C70.8421 15.609 68.4143 15.6927 65.9028 15.8602C43.2156 17.3671 24.7142 25.9062 16.51 38.7985C11.4032 46.8353 10.6498 55.8767 14.1659 65.0018C18.0169 75.2153 25.9699 84.5915 36.4345 91.0377C46.7317 97.5676 59.2055 101 71.4281 101C74.7768 101 78.1254 100.749 81.3067 100.247C111.277 95.8933 136.476 74.4618 137.397 52.4443C137.564 44.4075 133.63 36.873 125.928 30.678C126.681 29.9246 127.351 28.92 127.016 27.7479V27.6642V27.5805C126.932 27.4131 126.681 26.6596 127.267 26.0736C129.527 24.3155 129.527 23.5621 129.527 23.2272V22.5575L128.941 22.2226L128.439 21.9715L127.769 21.5529L127.183 21.9715L120.486 26.7433C120.067 26.4922 119.649 26.241 119.23 25.9899C120.486 24.9853 124.17 21.5529 124.588 18.7065V18.5391C124.588 18.3717 124.756 18.1205 125.258 17.7019C126.681 16.6973 128.355 15.1904 128.439 13.9347L128.523 13.0975L128.021 12.8464C128.104 12.5952 128.355 11.9255 128.439 11.758L128.69 11.172L128.272 10.6697L128.021 10.3349C127.853 10.3349 127.518 10 126.849 10Z" fill="white"/>
</svg>
