<svg width="273" height="100" viewBox="0 0 273 100" fill="none" xmlns="http://www.w3.org/2000/svg">
<g clip-path="url(#clip0)">
<circle cx="50" cy="50" r="50" fill="#0F5DE4"/>
<path d="M50.0383 20L72 36.7333V72H28V36.7333L50.0383 20Z" fill="#F8FCFF"/>
<path d="M116.54 43.22C117.56 44.48 120.44 47.6 126.2 47.6C132.68 47.6 138.56 43.4 138.56 35.06V6.14C138.56 5.54 138.08 5 137.42 5H130.1C129.44 5 128.96 5.54 128.96 6.14V35C128.96 38.3 127.1 38.96 125.42 38.96C124.04 38.96 123.08 38.42 122.36 37.7C121.88 37.22 121.22 37.28 120.74 37.7L116.66 41.72C116.3 42.14 116.24 42.74 116.54 43.22ZM145.018 34.46C145.018 42.32 147.538 47.66 155.638 47.66C159.778 47.66 162.718 45.2 164.398 43.46L165.358 46.04C165.598 46.52 166.078 47 166.678 47H169.438C170.158 47 170.758 46.4 170.758 45.68V20.6C170.758 19.82 170.158 19.28 169.438 19.28H163.138C162.478 19.28 161.638 19.46 161.638 20.6V34.76C161.638 37.22 160.558 39.08 157.858 39.08C155.038 39.08 154.138 37.4 154.138 34.28V20.6C154.138 19.82 153.538 19.28 152.818 19.28H146.278C145.618 19.28 145.018 19.82 145.018 20.6V34.46ZM186.845 47.66C194.225 47.66 198.125 43.64 198.125 38.84C198.125 33.26 193.565 31.04 187.985 29C186.005 28.28 184.865 27.68 184.865 26.96C184.865 26.24 185.285 25.82 186.845 25.82C189.065 25.82 191.465 26.6 193.325 27.5C193.865 27.74 194.585 27.5 194.765 27.02L196.925 22.58C197.285 21.86 196.925 21.14 196.205 20.78C194.105 19.7 190.325 18.68 186.725 18.68C179.525 18.68 176.225 22.34 176.225 27.32C176.225 31.76 178.985 34.22 184.325 36.32C187.565 37.58 189.065 38.3 189.065 39.2C189.065 39.86 188.765 40.52 186.965 40.52C184.445 40.52 182.345 39.86 180.125 38.78C179.525 38.48 178.865 38.9 178.685 39.38L176.465 43.94C176.165 44.54 176.345 45.02 176.945 45.38C178.745 46.46 182.345 47.66 186.845 47.66ZM205.065 38C205.065 44.3 208.125 47.66 213.405 47.66C216.345 47.66 219.465 46.88 221.325 46.1C222.105 45.74 222.405 45.38 222.225 44.54L221.025 39.32C220.845 38.6 220.185 38.3 219.465 38.48C218.805 38.66 217.005 39.08 216.045 39.08C214.845 39.08 214.185 38.48 214.185 37.16V27.5H219.765C220.485 27.5 221.085 26.9 221.085 26.18V20.6C221.085 19.82 220.485 19.28 219.765 19.28H214.185V11.6C214.185 10.88 213.645 10.28 212.985 10.28H206.385C205.665 10.28 205.065 10.88 205.065 11.6V19.28H202.785C202.125 19.28 201.585 19.82 201.585 20.6V26.18C201.585 26.9 202.125 27.5 202.785 27.5H205.065V38ZM226.821 45.68C226.821 46.4 227.421 47 228.141 47H234.621C235.341 47 235.941 46.4 235.941 45.68V20.6C235.941 19.82 235.341 19.28 234.621 19.28H228.141C227.421 19.28 226.821 19.82 226.821 20.6V45.68ZM231.321 15.44C234.201 15.44 236.541 13.1 236.541 10.28C236.541 7.4 234.201 5 231.321 5C228.441 5 226.161 7.4 226.161 10.28C226.161 13.1 228.441 15.44 231.321 15.44ZM242.641 45.68C242.641 46.4 243.241 47 243.961 47H250.561C251.521 47 251.821 46.28 251.821 45.68V31.94C251.821 29.12 253.261 27.2 256.021 27.2C259.141 27.2 260.041 29.66 260.041 32.3V45.68C260.041 46.4 260.581 47 261.361 47H267.901C268.561 47 269.161 46.4 269.161 45.68V32.42C269.161 24.8 266.221 18.68 257.581 18.68C252.541 18.68 250.441 21.2 248.941 22.88L247.921 20.12C247.621 19.58 247.081 19.28 246.661 19.28H243.961C243.241 19.28 242.641 19.82 242.641 20.6V45.68ZM120.74 95.86C120.74 96.46 121.22 97 121.82 97H136.46C148.04 97 157.52 87.58 157.52 75.94C157.52 64.42 148.04 55 136.46 55H121.82C121.22 55 120.74 55.54 120.74 56.14V95.86ZM130.1 88.12V63.82H136.4C143.18 63.82 147.56 69.16 147.56 75.94C147.56 82.78 143.18 88.12 136.4 88.12H130.1ZM161.158 83.08C161.158 91 167.698 97.66 175.618 97.66C183.538 97.66 190.018 91 190.018 83.08C190.018 75.28 183.538 68.68 175.618 68.68C167.698 68.68 161.158 75.28 161.158 83.08ZM169.798 83.08C169.798 79.9 172.378 77.2 175.618 77.2C178.798 77.2 181.378 79.9 181.378 83.08C181.378 86.32 178.798 89.08 175.618 89.08C172.378 89.08 169.798 86.32 169.798 83.08ZM195.182 95.68C195.182 96.4 195.782 97 196.502 97H202.982C203.702 97 204.302 96.4 204.302 95.68V56.32C204.302 55.66 203.702 55 202.982 55H196.502C195.782 55 195.182 55.66 195.182 56.32V95.68ZM211.119 95.68C211.119 96.4 211.719 97 212.439 97H218.919C219.639 97 220.239 96.4 220.239 95.68V56.32C220.239 55.66 219.639 55 218.919 55H212.439C211.719 55 211.119 55.66 211.119 56.32V95.68ZM225.437 83.14C225.437 91.72 231.677 97.66 239.957 97.66C244.337 97.66 247.817 96.16 250.217 93.7C250.817 93.1 250.697 92.26 250.277 91.72L247.217 87.7C246.797 87.16 246.077 87.16 245.477 87.7C244.277 88.54 241.997 89.44 240.197 89.44C236.417 89.44 234.437 86.8 234.437 84.64H251.537C252.137 84.64 252.797 84.16 252.857 83.44C252.917 83.02 252.977 82.06 252.977 81.64C252.977 74.02 246.857 68.68 239.837 68.68C231.617 68.68 225.437 75.34 225.437 83.14ZM235.457 79.36C235.817 77.5 237.317 75.94 239.597 75.94C241.937 75.94 243.497 77.5 243.617 79.36H235.457ZM235.577 66.28L246.497 61.36C246.977 61.06 247.337 60.46 246.857 59.56L244.817 56.02C244.517 55.48 243.617 55.6 243.257 55.84L233.057 62.08C232.757 62.32 232.457 62.74 232.697 63.22L233.957 65.74C234.257 66.34 234.797 66.76 235.577 66.28Z" fill="#0F5DE4"/>
</g>
<defs>
<clipPath id="clip0">
<rect width="273" height="100" fill="white"/>
</clipPath>
</defs>
</svg>
