<svg width="96" height="96" viewBox="0 0 96 96" fill="none" xmlns="http://www.w3.org/2000/svg">
<path d="M48 96C74.5097 96 96 74.5097 96 48C96 21.4903 74.5097 0 48 0C21.4903 0 0 21.4903 0 48C0 74.5097 21.4903 96 48 96Z" fill="#34D789"/>
<path d="M48 39.625C38.5078 39.625 30.8124 47.3204 30.8124 56.8126C30.8124 66.3048 38.5078 74.0001 48 74.0001C57.4922 74.0001 65.1875 66.3048 65.1875 56.8126C65.1875 47.3204 57.4922 39.625 48 39.625ZM57.0352 54.9825L53.3311 58.5919L54.207 63.6915C54.3633 64.6056 53.4004 65.3038 52.5811 64.8722L48 62.465L43.4199 64.8722C42.5996 65.3068 41.6377 64.6046 41.7939 63.6915L42.6699 58.5919L38.9658 54.9825C38.2998 54.3341 38.6679 53.2022 39.5859 53.0694L44.706 52.3233L46.9941 47.6827C47.2002 47.2647 47.5986 47.0587 47.998 47.0587C48.3994 47.0587 48.8008 47.2676 49.0068 47.6827L51.2949 52.3233L56.4151 53.0694C57.333 53.2022 57.7012 54.3341 57.0352 54.9825Z" fill="white"/>
<path d="M38.0996 24.5176L44.8506 35.7686C40.7451 36.4092 37.0537 38.2706 34.1513 40.9825L23.2851 25.459C22.5605 24.4229 23.3007 23 24.5654 23H35.4199C35.9596 23 36.4901 23.1398 36.9597 23.4057C37.4293 23.6717 37.822 24.0547 38.0996 24.5176Z" stroke="white" stroke-width="3" stroke-linejoin="round"/>
<path d="M60.5801 23H71.4346C72.6993 23 73.4395 24.4229 72.7149 25.459L61.8487 40.9815C58.9463 38.2706 55.2549 36.4092 51.1494 35.7686L57.9004 24.5176C58.4649 23.5762 59.4825 23 60.5801 23Z" stroke="white" stroke-width="3" stroke-linejoin="round"/>
</svg>
